<?xml version="1.0" standalone="no"?>
<!DOCTYPE svg PUBLIC "-//W3C//DTD SVG 1.1//EN" "http://www.w3.org/Graphics/SVG/1.1/DTD/svg11.dtd" >
<svg xmlns="http://www.w3.org/2000/svg">
<metadata>
Created by FontPrep 20130207 at Thu Oct 15 10:25:26 2015
 By Patrick Kelly
Moon Flower (c) (Denise Bentulan). 2013. All Rights Reserved
</metadata>
<defs>
<font id="52a3f37367a9a475e7c45eccbb6f1708" horiz-adv-x='1024' >
  <font-face 
    font-family="MoonFlower"
    font-weight="400"
    font-stretch="normal"
    units-per-em="2048"
    panose-1="2 0 5 0 0 0 0 0 0 0"
    ascent="1638"
    descent="-410"
    x-height="1208"
    cap-height="1360"
    bbox="-342 -418 2048 1716"
    underline-thickness="150"
    underline-position="-142"
    unicode-range="U+0020-F002"
  />
<missing-glyph horiz-adv-x="1024" 
d="M466 402q10 0 22 -11l56 -60q9 -11 9 -21t-10 -21l-56 -62q-14 -14 -23 -14t-18 10l-61 71q-7 8 -7 18t11 22l57 58q10 10 20 10zM496 1221q91 1 147 -47t56 -112t-23 -114q-22 -50 -86 -130t-100 -132t-36 -94t24 -138h-32q-35 96 -35 160q-1 64 81 206t82 208t-33 99
t-90 33t-126 -57v45q80 73 171 73zM150 50h724v1334h-724v-1334zM100 0v1434h824v-1434h-824z" />
    <glyph glyph-name=".notdef" horiz-adv-x="1024" 
d="M466 402q10 0 22 -11l56 -60q9 -11 9 -21t-10 -21l-56 -62q-14 -14 -23 -14t-18 10l-61 71q-7 8 -7 18t11 22l57 58q10 10 20 10zM496 1221q91 1 147 -47t56 -112t-23 -114q-22 -50 -86 -130t-100 -132t-36 -94t24 -138h-32q-35 96 -35 160q-1 64 81 206t82 208t-33 99
t-90 33t-126 -57v45q80 73 171 73zM150 50h724v1334h-724v-1334zM100 0v1434h824v-1434h-824z" />
    <glyph glyph-name=".null" horiz-adv-x="0" 
 />
    <glyph glyph-name="nonmarkingreturn" horiz-adv-x="508" 
 />
    <glyph glyph-name="space" unicode=" " horiz-adv-x="508" 
 />
    <glyph glyph-name="space" unicode="&#xa0;" horiz-adv-x="508" 
 />
    <glyph glyph-name="exclam" unicode="!" horiz-adv-x="445" 
d="M223 50q0 24 36 40q28 0 28 -28q-7 -48 -36 -48q-28 12 -28 36zM199 1434q6 0 16 -16l-4 -20q76 -443 76 -692q0 -82 4 -416l-12 -8h-12q-8 2 -16 20q-4 289 -4 428l-4 48q4 7 4 16q0 112 -76 616q0 24 28 24z" />
    <glyph glyph-name="quotedbl" unicode="&#x22;" horiz-adv-x="672" 
d="M236 1222h-12q-6 0 -12 12q16 76 24 232l-12 20v8q8 16 20 16q32 -4 32 -32q-10 -256 -40 -256zM384 1526q32 0 32 -224v-36q0 -3 4 -24q0 -24 -28 -24q-20 0 -20 252q-4 0 -12 40q0 6 16 16h8z" />
    <glyph glyph-name="numbersign" unicode="#" horiz-adv-x="985" 
d="M304 515h8q180 40 184 44q28 131 56 320q-200 -33 -200 -48q-40 -287 -48 -316zM600 1179q6 0 16 -16v-44q0 -30 -16 -192h4q80 12 148 12h8l24 4q17 -5 24 -20v-12q0 -5 -20 -20q-4 0 -32 8h-16q-148 0 -148 -24q0 -10 -52 -308h4q118 28 152 28h16q6 0 16 -16v-8
q0 -6 -16 -16h-12q-172 -23 -172 -40q-48 -268 -48 -380v-20q0 -31 -20 -40h-12q-8 2 -16 20q8 13 8 24v16q0 117 48 380q-188 -44 -188 -48q-32 -222 -32 -312q8 -25 8 -32q-6 -16 -12 -16h-20q-16 7 -16 28q0 80 28 324h-4q-83 -16 -96 -16l-12 16v8q0 20 116 32
q8 22 52 328h-8q-89 -20 -132 -20q-12 15 -12 25t16 19l20 -4q49 8 120 24q16 276 44 276h12q20 -10 20 -32q-23 0 -32 -220q-4 0 -4 -12h4q171 32 196 40q20 129 20 196v44q0 6 16 16h8z" />
    <glyph glyph-name="dollar" unicode="$" horiz-adv-x="766" 
d="M321 1268h4l28 4h15q40 0 61 -31v-8q0 -7 -19 -18l-47 13h-14q-28 0 -28 -26q-100 0 -137 -253v-71q0 -195 132 -230q20 -8 150 -18q184 -81 184 -217q-19 -117 -74 -177t-128 -106q0 -57 9 -364q-15 -13 -25 -13t-22 22l-9 332q-93 -31 -109 -31h-23q-26 0 -43 27v13
q0 7 15 14h4q34 -9 38 -9q122 26 122 57q3 0 19 5l10 -5q107 62 150 155q19 67 19 89q-32 177 -287 177q-165 56 -165 186q-13 25 -14 98v48q0 196 136 319v5q0 114 -23 181q0 7 19 18h9q43 -18 43 -186z" />
    <glyph glyph-name="percent" unicode="%" horiz-adv-x="999" 
d="M685 468q0 -4 -4 -4l4 -8v-8q-32 -25 -32 -68q9 -84 56 -84h24q72 19 72 72v4q0 69 -116 96h-4zM693 508q94 0 152 -112v-32q-29 -108 -108 -108h-20q-67 0 -92 64q-8 28 -8 48v28q0 28 8 44q-16 0 -16 12v12q39 44 84 44zM177 896q0 -40 32 -40h12q96 10 96 64
q-16 44 -60 44q-13 0 -40 -20h-16l-8 4q-16 -42 -16 -52zM357 912q0 -54 -84 -88q-18 -8 -52 -8h-4q-80 0 -80 84q0 60 60 100l28 -4q15 8 36 8q96 -17 96 -92zM689 1263q0 -25 -176 -563q-108 -376 -108 -472q-4 0 -2 -6q1 -6 -1 -22t-13 -16h-12q-16 8 -16 20
q6 175 188 744q100 280 100 332l12 8q28 0 28 -25z" />
    <glyph glyph-name="ampersand" unicode="&#x26;" horiz-adv-x="760" 
d="M205 394q0 -128 152 -148q99 0 140 208q-87 107 -196 288q-96 -196 -96 -348zM205 1010q0 -58 100 -184h4q108 160 108 188v4q-8 64 -64 64q-148 -14 -148 -72zM457 1026v-12q0 -47 -128 -228v-4q58 -118 176 -272h4q21 196 56 196h12q6 0 16 -16l-24 -52
q-28 -152 -28 -184q152 -201 172 -236v-4q0 -6 -16 -16q-23 0 -64 68q-18 18 -104 136q-57 -196 -172 -196q-106 0 -168 92q-24 53 -24 100q0 181 116 384q-116 168 -116 220v12q0 74 132 100q18 8 52 8q108 -15 108 -96z" />
    <glyph glyph-name="quotesingle" unicode="'" horiz-adv-x="346" 
d="M201 1367q6 0 16 -16q-44 -195 -76 -260l-8 -4h-8q-6 0 -16 16q36 120 68 256l12 8h12z" />
    <glyph glyph-name="parenleft" unicode="(" horiz-adv-x="431" 
d="M236 1413q6 0 16 -25v-6q0 -14 -32 -92q-64 -242 -64 -516t124 -805q28 -88 128 -264v-6q-8 -28 -16 -31q-29 0 -120 203q-74 193 -144 688q-12 195 -12 227q0 348 96 609l16 18h8z" />
    <glyph glyph-name="parenright" unicode=")" horiz-adv-x="451" 
d="M58 1392q8 0 40 -77q72 -109 120 -329t48 -396v-72q0 -480 -120 -766l-16 -5q-16 8 -16 15v11q112 312 112 710v107q0 253 -92 557l-100 209v16q0 8 16 20h8z" />
    <glyph glyph-name="asterisk" unicode="*" horiz-adv-x="766" 
d="M325 1397q18 0 40 -104l36 64h20q6 0 12 -12v-4q-36 -79 -36 -104q56 20 132 36h8q6 0 12 -12v-12q0 -13 -148 -52v-4q0 -3 140 -140v-16q0 -6 -12 -12h-4q-19 0 -96 84l-16 12v-4q20 -76 20 -88q-6 -16 -12 -16h-16q-9 0 -40 124h-4q-25 -116 -48 -116h-4q-6 0 -16 16
l36 132h-4q-58 -24 -64 -24t-16 16q0 31 76 48v4q-60 65 -60 84v4q0 6 16 16h8l44 -48v8q-28 94 -28 108l16 12h8z" />
    <glyph glyph-name="plus" unicode="+" horiz-adv-x="821" 
d="M352 1016q19 0 24 -156q149 16 224 16h24q6 0 12 -12v-16q0 -6 -12 -12h-28q-81 0 -216 -16v-4q0 -60 20 -220l-12 -8h-16q-20 0 -32 224h-4q-14 0 -128 -20h-12q-6 0 -12 12v12q0 22 152 36q-4 87 -12 140q0 24 28 24z" />
    <glyph glyph-name="comma" unicode="," horiz-adv-x="493" 
d="M171 -152v16q28 49 56 164q16 12 24 12q18 -8 20 -16q-28 -94 -60 -176q-15 -12 -24 -12q-16 6 -16 12z" />
    <glyph glyph-name="hyphen" unicode="-" horiz-adv-x="670" 
d="M483 702v-12q0 -6 -16 -16q-70 16 -106 16t-182 -20l-8 12v16q0 20 148 28q0 4 52 4q112 -11 112 -28z" />
    <glyph glyph-name="hyphen" unicode="&#xad;" horiz-adv-x="670" 
d="M483 702v-12q0 -6 -16 -16q-70 16 -106 16t-182 -20l-8 12v16q0 20 148 28q0 4 52 4q112 -11 112 -28z" />
    <glyph glyph-name="period" unicode="." horiz-adv-x="397" 
d="M202 98q6 0 16 -16v-16q-25 -32 -40 -32q-18 8 -20 16v12q17 31 28 36h16z" />
    <glyph glyph-name="slash" unicode="/" horiz-adv-x="569" 
d="M536 1236q6 0 16 -16v-8q-30 -35 -120 -268q-160 -314 -388 -932q-15 -12 -28 -12q-16 8 -16 24q32 64 240 608q158 330 264 588l20 16h12z" />
    <glyph glyph-name="zero" unicode="0" horiz-adv-x="732" 
d="M183 998v-55q0 -440 76 -714q59 -121 140 -145h12q101 0 124 196v4q0 102 4 217q0 470 -64 678q-66 112 -132 112q0 4 -12 4q-92 -37 -92 -80q-56 -137 -56 -217zM575 294q0 -183 -128 -242l-40 -4h-8q-53 0 -132 91q-124 167 -124 862q0 118 96 305q56 21 96 25
q83 0 164 -112q60 -132 60 -330q11 -52 20 -381q-4 -92 -4 -214z" />
    <glyph glyph-name="one" unicode="1" horiz-adv-x="575" 
d="M266 1444q83 0 112 -680q32 -416 32 -616v-128q-10 -20 -32 -20q0 6 -12 12l4 48v96q-43 1111 -100 1228l-4 16q-69 -43 -96 -108l-20 -4h-4q-6 0 -16 16q11 54 124 140h12z" />
    <glyph glyph-name="two" unicode="2" horiz-adv-x="670" 
d="M499 76h16q6 0 16 -16v-12q0 -6 -12 -12h-20q-61 0 -268 -36l-12 16v12q-1 18 87 416t181 584q40 125 40 203t-112 121q-10 0 -32 4q-188 -42 -188 -84q-21 -22 -36 -64l-8 -4q-21 0 -28 16v16q51 101 128 128q92 28 132 32q126 0 180 -140l4 -28q0 -138 -112 -384
q-88 -284 -122 -461t-74 -335h4q196 28 236 28z" />
    <glyph glyph-name="three" unicode="3" horiz-adv-x="636" 
d="M158 1417q4 0 4 -4l8 4q195 0 248 -124q5 -6 8 -40q-29 -264 -100 -348q-12 -22 -12 -36q101 0 172 -200q28 -83 28 -148q0 -324 -160 -436q-53 -52 -120 -60q-7 -4 -16 -4h-4q-6 0 -16 16v8q0 15 96 40q136 117 136 164q44 111 44 268v4q0 120 -88 264q-46 48 -104 48
q-8 -4 -12 -4q-18 8 -20 16v12q95 120 128 320q8 67 8 76q0 70 -120 116q-46 8 -60 8t-64 -4l-12 16v12q0 6 16 16h12z" />
    <glyph glyph-name="four" unicode="4" horiz-adv-x="588" 
d="M221 1303q0 -25 -44 -506v-28q0 -21 8 -96h4q60 8 100 8h92q0 193 -40 532q8 25 20 28h8q6 0 16 -16v-4q0 -9 -4 -16q14 0 40 -520q16 -2 16 -12v-12l-12 -16q24 -239 40 -620l-20 -12q-24 8 -24 32v8q0 4 4 4l-4 8q0 203 -36 576h-112q-40 0 -104 -16h-8q-16 0 -24 144
q0 56 44 528l-4 28q17 16 32 16q12 -13 12 -38z" />
    <glyph glyph-name="five" unicode="5" horiz-adv-x="643" 
d="M278 1362h4q31 0 40 -20v-12l-8 -12q-6 0 -48 4q-117 -12 -156 -20l44 -380h8q201 0 304 -216q48 -131 48 -216q0 -319 -228 -456q-21 -20 -40 -20q-18 7 -28 24v8q0 6 16 16q9 0 16 -4q157 95 200 248q24 70 24 182t-76 266q-101 132 -268 132q-21 0 -56 392
q-2 23 -12 36v24q0 6 16 16h8l16 -12q138 20 176 20z" />
    <glyph glyph-name="six" unicode="6" horiz-adv-x="691" 
d="M397 111q70 0 104 208q0 280 -120 416q-62 68 -125 68t-79 -124q0 -175 72 -376q88 -192 148 -192zM357 1287q6 0 16 -16v-8l-48 -40q-39 -50 -84 -176q-52 -173 -52 -228q39 24 76 24h8q103 0 212 -192q56 -169 56 -306t-80 -246q-26 -24 -52 -24h-20q-120 0 -228 380
q-16 103 -24 228q0 271 144 552q39 52 76 52z" />
    <glyph glyph-name="seven" unicode="7" horiz-adv-x="671" 
d="M202 1298h320q40 -3 40 -24q-132 -436 -240 -892l-88 -340q0 -26 -12 -28h-16q-6 0 -12 12v16q0 14 64 252q136 567 240 900q4 7 16 64h-340q-68 -8 -76 -8q-16 7 -16 28v4q0 6 16 16q20 -1 20 -8q21 8 84 8z" />
    <glyph glyph-name="eight" unicode="8" horiz-adv-x="643" 
d="M163 274v-8q0 -108 148 -160q10 0 32 -4q132 19 132 96q0 83 -224 316h-4q-84 -168 -84 -240zM339 1254q0 -20 -68 -56q-104 -146 -104 -311t72 -285h4q0 10 120 280q48 119 48 206t-64 166h-8zM339 1298q76 0 112 -200v-24q0 -123 -152 -436q-28 -68 -28 -76v-4
q244 -267 244 -352v-16q0 -101 -172 -128q-113 0 -196 116q-24 42 -24 84v8q0 96 100 284q-96 140 -96 334t124 346q39 20 68 56q13 8 20 8z" />
    <glyph glyph-name="nine" unicode="9" horiz-adv-x="670" 
d="M222 816q0 -11 56 -24q113 0 156 172q16 68 16 105l-12 177h-20q-32 48 -64 48h-4q-117 0 -164 -167q-8 -18 -16 -86q14 -225 52 -225zM346 1342h4q67 -5 80 -48h8l12 10h12q39 0 60 -938q4 0 12 -196h-4l4 -10v-29q0 -27 4 -76q-8 -22 -16 -24h-12q-20 0 -20 278
q-8 112 -24 598h-8q-54 -163 -180 -163q-120 0 -140 187q-4 80 -8 105q0 158 120 277q43 29 96 29z" />
    <glyph glyph-name="colon" unicode=":" horiz-adv-x="557" 
d="M278 449q0 28 26 28t26 -28v-16q0 -6 -16 -16h-4q-22 0 -32 24v8zM302 897h-8q-20 10 -20 32v16q0 6 24 24h8q32 -3 32 -28l-4 -8l4 -8q-12 -28 -36 -28z" />
    <glyph glyph-name="semicolon" unicode=";" horiz-adv-x="557" 
d="M276 484q6 0 12 -12v-12q-16 -19 -60 -168l-8 -4h-16q-6 0 -12 16q48 171 60 180h24zM256 924h4q24 -2 24 -12v-8q0 -39 -36 -44q-16 0 -24 16v16q0 32 32 32z" />
    <glyph glyph-name="semicolon" unicode="&#x37e;" horiz-adv-x="557" 
d="M276 484q6 0 12 -12v-12q-16 -19 -60 -168l-8 -4h-16q-6 0 -12 16q48 171 60 180h24zM256 924h4q24 -2 24 -12v-8q0 -39 -36 -44q-16 0 -24 16v16q0 32 32 32z" />
    <glyph glyph-name="less" unicode="&#x3c;" 
d="M629 1019q6 0 16 -16q0 -28 -52 -52q0 -11 -248 -236q-64 -79 -64 -84q104 -114 248 -200q162 -121 176 -140v-8q0 -6 -16 -16h-12l-380 284q-64 62 -64 80q28 70 204 220q154 153 184 168h8z" />
    <glyph glyph-name="equal" unicode="=" 
d="M855 539v-24l-4 -8l-48 4q-53 0 -620 -24q-26 -8 -36 -8h-8q-6 0 -16 16v8q0 25 232 32l448 16q52 0 52 -12zM250 771q-94 0 -95 20v8q0 6 16 16q21 0 84 -8q107 4 304 8q112 -4 236 -4l8 -12v-16l-12 -16q-143 8 -295 6t-246 -2z" />
    <glyph glyph-name="greater" unicode="&#x3e;" 
d="M331 335q-6 0 -16 16q0 19 112 132q179 213 268 292q-179 131 -368 300q-12 21 -12 48l16 12h8q11 -4 28 -44q176 -152 376 -304l8 -16q0 -6 -96 -88q-113 -133 -312 -348h-12z" />
    <glyph glyph-name="question" unicode="?" horiz-adv-x="664" 
d="M358 92q5 0 20 -20v-20q0 -32 -32 -32t-36 40q2 13 36 32h12zM306 1352q78 0 148 -68q56 -71 56 -132v-28q0 -201 -112 -384q-32 -66 -32 -208q8 -66 8 -104v-44q0 -21 -16 -28h-12q-10 0 -11 17t1 23t-10 136q0 201 80 308q68 145 68 292q0 85 -80 152q-62 28 -96 28
q-128 -35 -128 -112v-36l12 -16v-4q0 -21 -16 -28h-16q-20 10 -20 32v56q0 102 160 148h16z" />
    <glyph glyph-name="at" unicode="@" horiz-adv-x="917" 
d="M352 855q0 -190 92 -252q7 0 24 -8q84 0 84 192v24q-19 256 -36 256q-4 0 -40 12q-93 0 -120 -160q-4 -41 -4 -64zM432 1291h8q119 0 208 -168q52 -92 80 -316q4 -23 4 -64v-12q0 -86 -56 -96h-4q-27 0 -76 168h-4q0 -248 -120 -248q-137 0 -160 288q0 208 108 264
q37 12 61 12t63 -28q24 0 44 -128q56 -193 92 -276h4q8 36 8 52v4q0 183 -92 392q-85 116 -156 116h-16q-81 0 -172 -140q-48 -87 -52 -200q24 -323 52 -460q93 -240 264 -240q124 30 124 68q17 10 56 144l8 4h8q6 0 16 -16v-12q-31 -140 -88 -184q-74 -44 -128 -44
q-205 0 -304 292q-48 356 -48 456q0 192 152 324q61 48 116 48z" />
    <glyph glyph-name="A" unicode="A" horiz-adv-x="739" 
d="M205 733q-4 0 -4 -97v-13q126 35 243 35v5q0 122 -133 578q-29 63 -48 71q-58 -224 -58 -579zM263 1365h4q57 -26 97 -141q111 -344 164 -879q35 -174 35 -305q-5 -13 -27 -13q-16 31 -48 318q-9 31 -40 265l-31 4q-216 -20 -216 -44v-155l-27 -371q9 -14 9 -24t-18 -20
q-35 0 -35 44q31 422 31 508q-4 55 -4 111q2 288 48 609q19 93 58 93z" />
    <glyph glyph-name="B" unicode="B" horiz-adv-x="599" 
d="M248 1416q-50 0 -88 -36q32 -249 32 -712q16 -188 40 -612l16 -16q83 34 116 120q48 134 48 268q-32 192 -52 192q-27 78 -120 132q-34 0 -48 24v12q129 145 168 324v64q-20 240 -112 240zM244 0q-56 0 -56 136q-48 689 -48 1060q-8 108 -24 204q67 56 132 56
q124 0 152 -260v-76q-20 -140 -128 -300q-3 -1 -24 -28v-4q170 -63 204 -360q0 -208 -88 -352q-57 -63 -112 -76h-8z" />
    <glyph glyph-name="C" unicode="C" horiz-adv-x="636" 
d="M338 1356h28q72 -13 72 -52q0 -6 -16 -16h-16q-26 32 -56 32q-100 -35 -100 -64q-80 -152 -80 -416v-68q0 -178 48 -428q29 -183 80 -248q62 -54 114 -55t122 87h12q6 0 12 -12v-8q0 -36 -88 -92q-37 -16 -68 -16h-4q-59 7 -124 64q-71 56 -124 456q-20 86 -20 284v24
q7 405 132 500q59 28 76 28z" />
    <glyph glyph-name="D" unicode="D" horiz-adv-x="612" 
d="M179 436v-48q0 -152 16 -320q93 80 172 208q92 205 92 384v40q0 251 -124 512q-89 134 -168 160v-4q4 -452 16 -712q-4 -107 -4 -220zM499 692v-20q0 -392 -284 -640q-35 -12 -47 -12t-17 64l4 8q-12 92 -16 260h4l-4 8v4q0 158 4 288l-20 780h4q159 -52 244 -204
q128 -261 128 -536z" />
    <glyph glyph-name="E" unicode="E" horiz-adv-x="575" 
d="M428 1351v-4q-7 -20 -20 -20l-116 12q-11 0 -80 -4l4 -48q0 -65 20 -528h28q33 0 52 4q90 -8 132 -8l12 -16v-12q0 -12 -26 -12t-106 8q-54 -4 -92 -4v-16q0 -282 28 -652q4 0 4 -4q151 8 180 8q17 -5 24 -20v-4q0 -6 -16 -16q-152 -4 -184 -8q-48 0 -48 52
q-28 382 -28 636v128q-20 352 -20 476q-12 60 -12 64l16 12h44q23 0 64 4l8 -4q4 0 4 4q128 -12 128 -28z" />
    <glyph glyph-name="F" unicode="F" horiz-adv-x="561" 
d="M321 769h104q8 0 12 -24l-20 -16h-112q-100 0 -100 -16v-44q0 -58 8 -480v-44l4 -24q0 -4 -4 -4l4 -40v-44q0 -6 -12 -12h-12q-6 0 -16 16q-15 840 -24 840h4l-4 8q-16 314 -16 460q16 12 44 12q164 -8 240 -8l8 -12q0 -28 -24 -28q-103 4 -228 4l20 -500v-4l4 -48
q62 8 120 8z" />
    <glyph glyph-name="G" unicode="G" horiz-adv-x="732" 
d="M344 1312q76 0 120 -56v-8q0 -6 -16 -16q-8 0 -52 28q-26 12 -56 12h-16q-120 -29 -120 -684q0 -309 72 -472q23 -48 92 -76h16q72 14 72 60q14 0 40 240v196l-4 20q-4 0 -4 -4q-160 12 -160 24l-4 20v4q0 6 12 12h12q13 -10 172 -24q16 -16 16 -76v-100q0 -23 -4 -64
q4 -8 4 -12q-27 -316 -92 -316q0 -8 -60 -20h-16q-65 15 -116 76q-88 167 -88 516q0 659 132 716l40 4h8z" />
    <glyph glyph-name="H" unicode="H" horiz-adv-x="599" 
d="M440 1459q0 -188 -8 -292l8 -416q8 -13 6 -23t-6 -9q8 -187 12 -652q-4 -21 -4 -80l-12 -8h-12l-16 12q0 43 4 68q-4 547 -12 656q-188 -4 -212 -12q8 -75 8 -191t-4 -237q4 -68 4 -264q-14 -8 -22 -8t-18 16v36q0 163 -4 220q4 98 4 240v60q-12 196 -12 272
q12 446 12 568q-4 16 -4 28l16 12h8q20 -12 20 -32q0 -74 -12 -600v-72l4 -8q26 8 212 12q-4 145 -4 208v184q0 9 -4 16l4 8q4 192 4 296l16 12h8q16 -8 16 -20z" />
    <glyph glyph-name="I" unicode="I" horiz-adv-x="424" 
d="M221 1360q28 0 28 -212v-52q0 -78 -24 -404q0 -16 4 -32q-4 -209 -4 -332v-260q0 -8 8 -40q-5 -28 -16 -28h-16q-16 0 -16 108q0 694 24 956v112q0 93 -12 168q0 6 16 16h8z" />
    <glyph glyph-name="J" unicode="J" horiz-adv-x="486" 
d="M315 560v-28q0 -39 8 -256q-15 -276 -120 -276h-16q-108 27 -108 68q-20 11 -24 188q13 12 20 12q20 -6 20 -28q0 -188 60 -188q21 -12 40 -12h4q68 0 84 228v20q-8 210 -8 252v48q0 221 -4 572q-8 54 -8 116v28q0 5 20 20q11 0 24 -8q0 -2 -4 -52q12 -149 12 -704z" />
    <glyph glyph-name="K" unicode="K" horiz-adv-x="629" 
d="M424 1388q0 -176 -80 -468q-16 -77 -68 -272q59 0 200 -380q33 -100 56 -244v-12q0 -6 -12 -12h-12q-20 10 -20 32v4q0 4 4 4q-52 241 -112 368q-88 208 -136 208l36 -608l-12 -8h-16q-5 0 -20 20v4q0 11 8 24q-37 651 -68 936q-56 318 -56 404v12q0 6 16 16h8
q6 0 16 -16v-20q12 -115 72 -540q12 -138 12 -160h4q140 541 140 660v40q0 4 -4 32l16 12q22 0 28 -16v-20z" />
    <glyph glyph-name="L" unicode="L" horiz-adv-x="575" 
d="M165 1436h4q6 0 16 -16q0 -20 -8 -20l4 -8q28 -436 28 -736q12 -97 12 -268v-348h216q6 0 12 -12v-12q0 -16 -68 -16h-184q-6 0 -16 16v24q0 28 4 28l-4 48v292q-16 527 -32 876l-12 132q6 20 28 20z" />
    <glyph glyph-name="M" unicode="M" horiz-adv-x="725" 
d="M393 745q0 43 198 618h12l10 -19l1 -40q-11 -358 -11 -529t35 -763l-24 -12q-23 0 -46 652v489h-12q-145 -451 -163 -465q-35 2 -221 524h-12v-12l58 -1153l-23 -12q-23 0 -23 24q-35 1046 -70 1327l23 12q24 -8 257 -641h11z" />
    <glyph glyph-name="N" unicode="N" horiz-adv-x="684" 
d="M510 747l4 190q8 79 8 126v284q3 23 22 23l23 -12q-11 -227 -11 -341v-113q0 -348 22 -898l-22 -11q-23 0 -284 886l-105 361l-8 13l-1 -22q7 -84 7 -132l1 -34q-8 -222 -8 -311q0 -448 34 -738h-23q-22 0 -22 22q-23 349 -23 625v693q4 23 24 23t180 -545
q23 -129 194 -648h11v34q-23 486 -23 525z" />
    <glyph glyph-name="O" unicode="O" horiz-adv-x="622" 
d="M136 576q0 -226 60 -396q56 -112 100 -112h4q81 0 104 112q44 104 44 444v80q0 235 -84 540q-30 67 -60 88q-47 -18 -56 -44q-112 -237 -112 -712zM304 1372q113 0 180 -540q4 -51 4 -132v-16q0 -14 -4 -36q4 -5 4 -28v-4q0 -23 -4 -28q4 -21 4 -24q0 -422 -116 -520
q-41 -16 -56 -16h-28q-144 35 -180 372l-12 164q0 563 140 780q37 28 68 28z" />
    <glyph glyph-name="P" unicode="P" horiz-adv-x="555" 
d="M419 1156q0 104 -120 188q-35 12 -80 20l-20 -724q4 -84 4 -116l8 -4q46 0 92 48q69 44 112 492q4 73 4 96zM207 472v-4q0 -53 4 -88q-4 -35 -4 -40q12 -226 12 -260q12 -2 12 -32v-12q-12 -31 -24 -36h-8q-6 0 -16 16v28q0 4 4 4q-19 108 -8 108l-12 168q4 40 2 86
t-2 66q-16 8 -14 22t14 14q-8 106 -8 128l20 728q-8 0 -8 8v12q0 6 16 16q187 0 256 -172q12 -39 16 -92q0 -250 -88 -548q-41 -71 -116 -108q-48 -3 -48 -12z" />
    <glyph glyph-name="Q" unicode="Q" horiz-adv-x="692" 
d="M191 944q0 -660 116 -760q24 -48 84 -48q31 0 52 60q-116 174 -116 184v4q0 6 16 16h8q19 -13 100 -144h8q12 84 12 108v244q0 405 -112 724q-2 0 -28 24h-4q-71 -21 -80 -40q-56 -75 -56 -372zM327 1400q75 0 116 -220q68 -219 68 -596v-204q0 -65 -24 -180
q108 -167 108 -184v-4q0 -6 -12 -12h-12q-29 21 -96 152h-8q-27 -56 -76 -56q-174 0 -220 384q-20 187 -20 502t84 382q67 36 92 36z" />
    <glyph glyph-name="R" unicode="R" horiz-adv-x="595" 
d="M371 1036v56q0 105 -88 268q-66 60 -100 60h-12q24 -292 44 -724q156 106 156 340zM411 1096v-40q0 -262 -152 -380q176 -42 204 -416v-152q0 -34 4 -100l-12 -8h-12l-16 12q-4 80 -4 120v144q0 150 -92 308q-64 60 -112 60h-4q4 -86 4 -128v-152q8 -198 8 -224v-8
q-8 -16 -19 -16t-25 16l4 28q-8 169 -8 224v240q-17 0 -24 16v12q8 16 20 16q-20 549 -52 796l16 12h8q11 -14 72 -24q76 -31 124 -112q68 -165 68 -244z" />
    <glyph glyph-name="S" unicode="S" horiz-adv-x="575" 
d="M358 1329q0 -5 -20 -19h-40q-106 0 -144 -79q-32 -87 -32 -173t56 -235q20 -40 216 -217q100 -144 100 -270t-48 -231q-22 -50 -120 -86q-35 -19 -56 -19t-28 15v11q0 11 44 15q132 50 132 105q36 72 36 187q0 151 -136 296q-107 81 -160 157q-36 39 -72 206q0 20 -4 52
q0 128 48 228q55 79 216 79l12 -15v-7z" />
    <glyph glyph-name="T" unicode="T" horiz-adv-x="616" 
d="M518 1278q0 -17 -112 -17h-112q-6 0 -12 -14l8 -183q-4 -25 -4 -28q36 -605 36 -867q4 -7 2 -12t-2 -9l4 -24q-6 -14 -12 -14h-16q-4 0 -16 14q0 7 4 38q0 86 -36 864q0 127 -8 231l-8 4h-12l-128 -11q-12 13 -12 25t16 20q28 -7 32 -7q77 7 108 7h164q51 0 104 7l12 -14
v-10z" />
    <glyph glyph-name="U" unicode="U" horiz-adv-x="698" 
d="M229 1376v-20q36 -651 88 -1048q35 -268 108 -268q52 22 52 76q0 157 -32 792q4 116 4 224v96l-4 24l4 8q-4 54 -12 112l16 12h12q17 0 24 -112q0 -8 -4 -8q4 -60 4 -88v-128l-4 -24q0 -4 4 -4q-4 -47 -4 -68v-16q32 -696 32 -820q-11 -116 -104 -116q-108 0 -144 384
q-44 342 -84 1012l16 12h8q20 -10 20 -32z" />
    <glyph glyph-name="V" unicode="V" horiz-adv-x="633" 
d="M453 1376h16q6 0 12 -16l-120 -1072q-15 -284 -24 -284l-8 -4h-12q-19 0 -44 228q-104 660 -104 1056l-12 52q0 6 16 16h8q36 0 36 -312q51 -572 96 -836h4q0 82 112 1036q8 136 24 136z" />
    <glyph glyph-name="W" unicode="W" horiz-adv-x="846" 
d="M695 1316q6 0 12 -12q-44 -870 -56 -1200q-13 -72 -28 -72h-8q-21 0 -76 200q-104 337 -104 372h-4q-32 -464 -32 -596l-12 -8h-12q-16 0 -32 136q-88 414 -176 1072q-3 0 -16 56q0 6 16 16h16q18 0 44 -228q72 -474 96 -604l40 -216h4q33 528 44 556l20 4q20 0 36 -156
q19 -97 104 -372l36 -128l8 4q24 717 56 1168l12 8h12z" />
    <glyph glyph-name="X" unicode="X" horiz-adv-x="835" 
d="M535 1376q6 0 12 -12v-12q-40 -260 -96 -688q131 -252 216 -476l84 -168v-4q0 -6 -16 -16h-4q-31 0 -36 44q-62 107 -180 408q-6 1 -72 144h-8q-16 -83 -92 -396q-21 -124 -32 -124h-20q-6 0 -16 16q132 532 132 572q-185 378 -284 644v4l16 12h8q16 0 100 -224l168 -360
q12 0 52 344q32 240 48 292h20z" />
    <glyph glyph-name="Y" unicode="Y" horiz-adv-x="650" 
d="M517 1312q6 0 16 -16v-4q-32 -286 -68 -560l4 -24v-12q-14 0 -35 -297t-37 -395l-8 -4h-12q-8 2 -16 20q44 527 64 688q-108 235 -284 472q-32 23 -32 44v8q0 6 16 16h16q13 -5 24 -40q160 -198 264 -420h4q44 381 64 516l12 8h8z" />
    <glyph glyph-name="Z" unicode="Z" horiz-adv-x="725" 
d="M181 1208q0 -15 256 -24q72 -8 72 -36v-4q-88 -241 -212 -728q-88 -238 -88 -364q33 -8 90 -8t194 4q28 -3 28 -8l8 4h8q6 0 16 -16v-12q0 -8 -24 -16q-33 8 -77 8t-171 -4q-67 8 -112 8q-8 13 -8 20q0 99 92 388q24 68 132 484q48 134 76 232q-50 11 -288 24
q-16 18 -16 28t16 20h8z" />
    <glyph glyph-name="bracketleft" unicode="[" horiz-adv-x="664" 
d="M430 1303l12 -16v-8q-15 -35 -256 -52q0 -2 -44 -16l44 -480q30 -244 60 -720q8 -24 12 -24q297 -16 312 -16l12 -20q-1 -11 -20 -20l-20 4q-58 0 -308 12q-35 0 -48 388q-84 872 -84 892q5 39 244 56q0 6 84 20z" />
    <glyph glyph-name="backslash" unicode="\" horiz-adv-x="569" 
d="M28 1236q18 0 128 -256q188 -372 380 -872q40 -80 40 -89t-16 -19h-12q-15 1 -44 84q-182 451 -308 720q-71 133 -184 392q-6 0 -12 12v16q0 6 12 12h16z" />
    <glyph glyph-name="bracketright" unicode="]" horiz-adv-x="705" 
d="M203 1225q6 0 61 2t111 -2q22 4 36 4q60 -5 60 -36q-3 -28 -8 -28q12 -143 12 -256v-272q0 -266 36 -720q0 -11 -20 -20q-75 16 -160 24q-15 -4 -32 -4q-24 3 -24 24q6 16 12 16h52q72 0 128 -16v4q-16 170 -32 688v280q0 28 -8 268v8h-4q-36 0 -48 -4q-43 4 -77 4
t-115 -4q-32 6 -32 32q6 17 20 24h8q18 -16 24 -16z" />
    <glyph glyph-name="asciicircum" unicode="^" 
d="M201 739q-6 0 -16 16v24q32 25 48 68q114 196 252 360q13 8 24 8q66 -55 224 -232q132 -176 160 -204q0 -21 -12 -24h-16q-36 30 -180 224q-170 179 -180 184q-118 -132 -196 -273t-100 -151h-8z" />
    <glyph glyph-name="underscore" unicode="_" horiz-adv-x="1177" 
d="M1058 -104h16q6 0 12 -12v-12l-12 -16q-208 4 -568 24q-362 -4 -384 -8q-60 4 -60 20v8q0 6 16 16q26 0 40 -4q274 8 388 8q420 -24 552 -24z" />
    <glyph glyph-name="grave" unicode="`" horiz-adv-x="346" 
d="M63 1256h14q102 -72 213 -114q11 -11 11 -21t-18 -19h-8q-115 37 -212 111q-15 12 -15 29q10 14 15 14z" />
    <glyph glyph-name="a" unicode="a" horiz-adv-x="739" 
d="M205 733q-4 0 -4 -97v-13q126 35 243 35v5q0 122 -133 578q-29 63 -48 71q-58 -224 -58 -579zM263 1365h4q57 -26 97 -141q111 -344 164 -879q35 -174 35 -305q-5 -13 -27 -13q-16 31 -48 318q-9 31 -40 265l-31 4q-216 -20 -216 -44v-155l-27 -371q9 -14 9 -24t-18 -20
q-35 0 -35 44q31 422 31 508q-4 55 -4 111q2 288 48 609q19 93 58 93z" />
    <glyph glyph-name="b" unicode="b" horiz-adv-x="599" 
d="M248 1416q-50 0 -88 -36q32 -249 32 -712q16 -188 40 -612l16 -16q83 34 116 120q48 134 48 268q-32 192 -52 192q-27 78 -120 132q-34 0 -48 24v12q129 145 168 324v64q-20 240 -112 240zM244 0q-56 0 -56 136q-48 689 -48 1060q-8 108 -24 204q67 56 132 56
q124 0 152 -260v-76q-20 -140 -128 -300q-3 -1 -24 -28v-4q170 -63 204 -360q0 -208 -88 -352q-57 -63 -112 -76h-8z" />
    <glyph glyph-name="c" unicode="c" horiz-adv-x="636" 
d="M338 1356h28q72 -13 72 -52q0 -6 -16 -16h-16q-26 32 -56 32q-100 -35 -100 -64q-80 -152 -80 -416v-68q0 -178 48 -428q29 -183 80 -248q62 -54 114 -55t122 87h12q6 0 12 -12v-8q0 -36 -88 -92q-37 -16 -68 -16h-4q-59 7 -124 64q-71 56 -124 456q-20 86 -20 284v24
q7 405 132 500q59 28 76 28z" />
    <glyph glyph-name="d" unicode="d" horiz-adv-x="612" 
d="M179 436v-48q0 -152 16 -320q93 80 172 208q92 205 92 384v40q0 251 -124 512q-89 134 -168 160v-4q4 -452 16 -712q-4 -107 -4 -220zM499 692v-20q0 -392 -284 -640q-35 -12 -47 -12t-17 64l4 8q-12 92 -16 260h4l-4 8v4q0 158 4 288l-20 780h4q159 -52 244 -204
q128 -261 128 -536z" />
    <glyph glyph-name="e" unicode="e" horiz-adv-x="575" 
d="M428 1351v-4q-7 -20 -20 -20l-116 12q-11 0 -80 -4l4 -48q0 -65 20 -528h28q33 0 52 4q90 -8 132 -8l12 -16v-12q0 -12 -26 -12t-106 8q-54 -4 -92 -4v-16q0 -282 28 -652q4 0 4 -4q151 8 180 8q17 -5 24 -20v-4q0 -6 -16 -16q-152 -4 -184 -8q-48 0 -48 52
q-28 382 -28 636v128q-20 352 -20 476q-12 60 -12 64l16 12h44q23 0 64 4l8 -4q4 0 4 4q128 -12 128 -28z" />
    <glyph glyph-name="f" unicode="f" horiz-adv-x="561" 
d="M321 769h104q8 0 12 -24l-20 -16h-112q-100 0 -100 -16v-44q0 -58 8 -480v-44l4 -24q0 -4 -4 -4l4 -40v-44q0 -6 -12 -12h-12q-6 0 -16 16q-15 840 -24 840h4l-4 8q-16 314 -16 460q16 12 44 12q164 -8 240 -8l8 -12q0 -28 -24 -28q-103 4 -228 4l20 -500v-4l4 -48
q62 8 120 8z" />
    <glyph glyph-name="g" unicode="g" horiz-adv-x="732" 
d="M344 1312q76 0 120 -56v-8q0 -6 -16 -16q-8 0 -52 28q-26 12 -56 12h-16q-120 -29 -120 -684q0 -309 72 -472q23 -48 92 -76h16q72 14 72 60q14 0 40 240v196l-4 20q-4 0 -4 -4q-160 12 -160 24l-4 20v4q0 6 12 12h12q13 -10 172 -24q16 -16 16 -76v-100q0 -23 -4 -64
q4 -8 4 -12q-27 -316 -92 -316q0 -8 -60 -20h-16q-65 15 -116 76q-88 167 -88 516q0 659 132 716l40 4h8z" />
    <glyph glyph-name="h" unicode="h" horiz-adv-x="599" 
d="M440 1459q0 -188 -8 -292l8 -416q8 -13 6 -23t-6 -9q8 -187 12 -652q-4 -21 -4 -80l-12 -8h-12l-16 12q0 43 4 68q-4 547 -12 656q-188 -4 -212 -12q8 -75 8 -191t-4 -237q4 -68 4 -264q-14 -8 -22 -8t-18 16v36q0 163 -4 220q4 98 4 240v60q-12 196 -12 272
q12 446 12 568q-4 16 -4 28l16 12h8q20 -12 20 -32q0 -74 -12 -600v-72l4 -8q26 8 212 12q-4 145 -4 208v184q0 9 -4 16l4 8q4 192 4 296l16 12h8q16 -8 16 -20z" />
    <glyph glyph-name="i" unicode="i" horiz-adv-x="424" 
d="M221 1360q28 0 28 -212v-52q0 -78 -24 -404q0 -16 4 -32q-4 -209 -4 -332v-260q0 -8 8 -40q-5 -28 -16 -28h-16q-16 0 -16 108q0 694 24 956v112q0 93 -12 168q0 6 16 16h8z" />
    <glyph glyph-name="j" unicode="j" horiz-adv-x="486" 
d="M315 560v-28q0 -39 8 -256q-15 -276 -120 -276h-16q-108 27 -108 68q-20 11 -24 188q13 12 20 12q20 -6 20 -28q0 -188 60 -188q21 -12 40 -12h4q68 0 84 228v20q-8 210 -8 252v48q0 221 -4 572q-8 54 -8 116v28q0 5 20 20q11 0 24 -8q0 -2 -4 -52q12 -149 12 -704z" />
    <glyph glyph-name="k" unicode="k" horiz-adv-x="629" 
d="M424 1388q0 -176 -80 -468q-16 -77 -68 -272q59 0 200 -380q33 -100 56 -244v-12q0 -6 -12 -12h-12q-20 10 -20 32v4q0 4 4 4q-52 241 -112 368q-88 208 -136 208l36 -608l-12 -8h-16q-5 0 -20 20v4q0 11 8 24q-37 651 -68 936q-56 318 -56 404v12q0 6 16 16h8
q6 0 16 -16v-20q12 -115 72 -540q12 -138 12 -160h4q140 541 140 660v40q0 4 -4 32l16 12q22 0 28 -16v-20z" />
    <glyph glyph-name="l" unicode="l" horiz-adv-x="575" 
d="M165 1436h4q6 0 16 -16q0 -20 -8 -20l4 -8q28 -436 28 -736q12 -97 12 -268v-348h216q6 0 12 -12v-12q0 -16 -68 -16h-184q-6 0 -16 16v24q0 28 4 28l-4 48v292q-16 527 -32 876l-12 132q6 20 28 20z" />
    <glyph glyph-name="m" unicode="m" horiz-adv-x="725" 
d="M393 745q0 43 198 618h12l10 -19l1 -40q-11 -358 -11 -529t35 -763l-24 -12q-23 0 -46 652v489h-12q-145 -451 -163 -465q-35 2 -221 524h-12v-12l58 -1153l-23 -12q-23 0 -23 24q-35 1046 -70 1327l23 12q24 -8 257 -641h11z" />
    <glyph glyph-name="n" unicode="n" horiz-adv-x="684" 
d="M510 747l4 190q8 79 8 126v284q3 23 22 23l23 -12q-11 -227 -11 -341v-113q0 -348 22 -898l-22 -11q-23 0 -284 886l-105 361l-8 13l-1 -22q7 -84 7 -132l1 -34q-8 -222 -8 -311q0 -448 34 -738h-23q-22 0 -22 22q-23 349 -23 625v693q4 23 24 23t180 -545
q23 -129 194 -648h11v34q-23 486 -23 525z" />
    <glyph glyph-name="o" unicode="o" horiz-adv-x="622" 
d="M136 576q0 -226 60 -396q56 -112 100 -112h4q81 0 104 112q44 104 44 444v80q0 235 -84 540q-30 67 -60 88q-47 -18 -56 -44q-112 -237 -112 -712zM304 1372q113 0 180 -540q4 -51 4 -132v-16q0 -14 -4 -36q4 -5 4 -28v-4q0 -23 -4 -28q4 -21 4 -24q0 -422 -116 -520
q-41 -16 -56 -16h-28q-144 35 -180 372l-12 164q0 563 140 780q37 28 68 28z" />
    <glyph glyph-name="p" unicode="p" horiz-adv-x="555" 
d="M419 1156q0 104 -120 188q-35 12 -80 20l-20 -724q4 -84 4 -116l8 -4q46 0 92 48q69 44 112 492q4 73 4 96zM207 472v-4q0 -53 4 -88q-4 -35 -4 -40q12 -226 12 -260q12 -2 12 -32v-12q-12 -31 -24 -36h-8q-6 0 -16 16v28q0 4 4 4q-19 108 -8 108l-12 168q4 40 2 86
t-2 66q-16 8 -14 22t14 14q-8 106 -8 128l20 728q-8 0 -8 8v12q0 6 16 16q187 0 256 -172q12 -39 16 -92q0 -250 -88 -548q-41 -71 -116 -108q-48 -3 -48 -12z" />
    <glyph glyph-name="q" unicode="q" horiz-adv-x="692" 
d="M191 944q0 -660 116 -760q24 -48 84 -48q31 0 52 60q-116 174 -116 184v4q0 6 16 16h8q19 -13 100 -144h8q12 84 12 108v244q0 405 -112 724q-2 0 -28 24h-4q-71 -21 -80 -40q-56 -75 -56 -372zM327 1400q75 0 116 -220q68 -219 68 -596v-204q0 -65 -24 -180
q108 -167 108 -184v-4q0 -6 -12 -12h-12q-29 21 -96 152h-8q-27 -56 -76 -56q-174 0 -220 384q-20 187 -20 502t84 382q67 36 92 36z" />
    <glyph glyph-name="r" unicode="r" horiz-adv-x="595" 
d="M371 1036v56q0 105 -88 268q-66 60 -100 60h-12q24 -292 44 -724q156 106 156 340zM411 1096v-40q0 -262 -152 -380q176 -42 204 -416v-152q0 -34 4 -100l-12 -8h-12l-16 12q-4 80 -4 120v144q0 150 -92 308q-64 60 -112 60h-4q4 -86 4 -128v-152q8 -198 8 -224v-8
q-8 -16 -19 -16t-25 16l4 28q-8 169 -8 224v240q-17 0 -24 16v12q8 16 20 16q-20 549 -52 796l16 12h8q11 -14 72 -24q76 -31 124 -112q68 -165 68 -244z" />
    <glyph glyph-name="s" unicode="s" horiz-adv-x="575" 
d="M358 1329q0 -5 -20 -19h-40q-106 0 -144 -79q-32 -87 -32 -173t56 -235q20 -40 216 -217q100 -144 100 -270t-48 -231q-22 -50 -120 -86q-35 -19 -56 -19t-28 15v11q0 11 44 15q132 50 132 105q36 72 36 187q0 151 -136 296q-107 81 -160 157q-36 39 -72 206q0 20 -4 52
q0 128 48 228q55 79 216 79l12 -15v-7z" />
    <glyph glyph-name="t" unicode="t" horiz-adv-x="616" 
d="M518 1278q0 -17 -112 -17h-112q-6 0 -12 -14l8 -183q-4 -25 -4 -28q36 -605 36 -867q4 -7 2 -12t-2 -9l4 -24q-6 -14 -12 -14h-16q-4 0 -16 14q0 7 4 38q0 86 -36 864q0 127 -8 231l-8 4h-12l-128 -11q-12 13 -12 25t16 20q28 -7 32 -7q77 7 108 7h164q51 0 104 7l12 -14
v-10z" />
    <glyph glyph-name="u" unicode="u" horiz-adv-x="698" 
d="M229 1376v-20q36 -651 88 -1048q35 -268 108 -268q52 22 52 76q0 157 -32 792q4 116 4 224v96l-4 24l4 8q-4 54 -12 112l16 12h12q17 0 24 -112q0 -8 -4 -8q4 -60 4 -88v-128l-4 -24q0 -4 4 -4q-4 -47 -4 -68v-16q32 -696 32 -820q-11 -116 -104 -116q-108 0 -144 384
q-44 342 -84 1012l16 12h8q20 -10 20 -32z" />
    <glyph glyph-name="v" unicode="v" horiz-adv-x="633" 
d="M453 1376h16q6 0 12 -16l-120 -1072q-15 -284 -24 -284l-8 -4h-12q-19 0 -44 228q-104 660 -104 1056l-12 52q0 6 16 16h8q36 0 36 -312q51 -572 96 -836h4q0 82 112 1036q8 136 24 136z" />
    <glyph glyph-name="w" unicode="w" horiz-adv-x="846" 
d="M695 1316q6 0 12 -12q-44 -870 -56 -1200q-13 -72 -28 -72h-8q-21 0 -76 200q-104 337 -104 372h-4q-32 -464 -32 -596l-12 -8h-12q-16 0 -32 136q-88 414 -176 1072q-3 0 -16 56q0 6 16 16h16q18 0 44 -228q72 -474 96 -604l40 -216h4q33 528 44 556l20 4q20 0 36 -156
q19 -97 104 -372l36 -128l8 4q24 717 56 1168l12 8h12z" />
    <glyph glyph-name="x" unicode="x" horiz-adv-x="835" 
d="M535 1376q6 0 12 -12v-12q-40 -260 -96 -688q131 -252 216 -476l84 -168v-4q0 -6 -16 -16h-4q-31 0 -36 44q-62 107 -180 408q-6 1 -72 144h-8q-16 -83 -92 -396q-21 -124 -32 -124h-20q-6 0 -16 16q132 532 132 572q-185 378 -284 644v4l16 12h8q16 0 100 -224l168 -360
q12 0 52 344q32 240 48 292h20z" />
    <glyph glyph-name="y" unicode="y" horiz-adv-x="650" 
d="M517 1312q6 0 16 -16v-4q-32 -286 -68 -560l4 -24v-12q-14 0 -35 -297t-37 -395l-8 -4h-12q-8 2 -16 20q44 527 64 688q-108 235 -284 472q-32 23 -32 44v8q0 6 16 16h16q13 -5 24 -40q160 -198 264 -420h4q44 381 64 516l12 8h8z" />
    <glyph glyph-name="z" unicode="z" horiz-adv-x="725" 
d="M181 1208q0 -15 256 -24q72 -8 72 -36v-4q-88 -241 -212 -728q-88 -238 -88 -364q33 -8 90 -8t194 4q28 -3 28 -8l8 4h8q6 0 16 -16v-12q0 -8 -24 -16q-33 8 -77 8t-171 -4q-67 8 -112 8q-8 13 -8 20q0 99 92 388q24 68 132 484q48 134 76 232q-50 11 -288 24
q-16 18 -16 28t16 20h8z" />
    <glyph glyph-name="braceleft" unicode="{" horiz-adv-x="534" 
d="M353 1571q6 0 16 -16v-16q0 -7 -64 -40q-100 -80 -100 -240v-8q0 -213 52 -388v-52q0 -58 -92 -124q101 -49 112 -252v-84q0 -98 -4 -280q0 -60 56 -128q119 -68 120 -76v-12q0 -6 -12 -12q-74 14 -160 100q-44 72 -44 128v4q4 154 4 240v120q0 172 -108 228
q-20 10 -20 32l88 72q24 30 24 76q-56 186 -56 412v4q0 223 180 312h8z" />
    <glyph glyph-name="bar" unicode="|" 
d="M460 1695q28 0 28 -320v-79q0 -117 -24 -610q0 -25 4 -48q-4 -316 -4 -502v-392q0 -12 8 -61q-5 -42 -16 -42h-16q-16 0 -16 163q0 1048 24 1444v169q0 141 -12 254q0 9 16 24h8z" />
    <glyph glyph-name="braceright" unicode="}" horiz-adv-x="602" 
d="M362 1147h-4l4 -8v-16q0 -4 -4 -4l4 -8v-16q0 -103 -12 -232q0 -76 80 -152v-12q-52 -38 -52 -76q-4 -24 -4 -60q44 -471 44 -544q0 -187 -92 -220q-26 -8 -36 -8h-16q-6 0 -12 12v16q0 11 56 20q60 28 60 184q0 74 -44 536q0 114 40 148v4q-64 72 -64 156q12 118 12 188
v52q0 300 -88 360q-41 47 -148 76l-4 28l16 12q156 -46 212 -144q52 -102 52 -292z" />
    <glyph glyph-name="asciitilde" unicode="~" horiz-adv-x="739" 
d="M531 895q6 0 12 -12v-4q0 -85 -68 -108q-7 -4 -20 -4q-74 0 -152 56q-59 24 -84 24q-47 0 -84 -80h-16q-16 7 -16 28q47 92 109 92t207 -80h32q35 0 52 48l-4 8v16q0 6 16 16h16z" />
    <glyph glyph-name="exclamdown" unicode="&#xa1;" horiz-adv-x="445" 
d="M239 988q0 -24 -36 -40q-28 0 -28 28q7 48 36 48q28 -12 28 -36zM263 -396q-6 0 -16 16l4 20q-76 443 -76 692q0 82 -4 416l12 8h12q8 -2 16 -20q4 -289 4 -428l4 -48q-4 -7 -4 -16q0 -112 76 -616q0 -24 -28 -24z" />
    <glyph glyph-name="cent" unicode="&#xa2;" horiz-adv-x="629" 
d="M297 1328h28q72 -13 72 -52q0 -6 -16 -16h-16q-26 32 -56 32q-100 -35 -100 -64q-80 -152 -80 -416v-68q0 -140 30 -324q37 95 81 212q158 330 264 588l20 16h12q6 0 16 -16v-8q-30 -35 -120 -268q-113 -222 -261 -597q3 -15 6 -31q29 -183 80 -248q63 -54 115 -55
t121 87h12q6 0 12 -12v-8q0 -36 -88 -92q-37 -16 -68 -16h-4q-59 7 -124 64q-49 39 -89 240q-48 -124 -100 -264q-15 -12 -28 -12q-16 8 -16 24q22 45 131 324q-11 65 -22 144q-20 86 -20 284v24q7 405 132 500q59 28 76 28z" />
    <glyph glyph-name="sterling" unicode="&#xa3;" horiz-adv-x="842" 
d="M323 1307q60 0 60 -20v-8q0 -6 -16 -16q-2 0 -52 4q-88 -56 -88 -192v-24q0 -106 56 -364q153 -20 204 -32l8 -12v-8q-8 -16 -20 -16q-64 12 -192 24v-40q0 -63 -60 -224q-60 -197 -60 -236v-16q35 24 87 24t453 -56q36 6 36 32l8 4h16q6 0 12 -12q-6 -60 -60 -60h-32
l-412 52h-16q-73 0 -88 -52l-8 -4h-16q-20 0 -20 76v4q0 78 120 436v84q-104 21 -104 48q0 21 20 32h8q29 -35 72 -40v4q-52 245 -52 372q0 176 120 236h16z" />
    <glyph glyph-name="currency" unicode="&#xa4;" 
d="M507 1044q99 0 186 -60l118 118l80 -81l-117 -117q60 -89 60 -187t-60 -187l117 -117l-80 -81l-118 118q-85 -60 -187 -60t-186 60l-118 -118l-80 81l118 117q-60 86 -60 187t60 186l-118 118l80 81l118 -118q88 60 187 60zM730 717q0 89 -66 157q-67 65 -157 65
t-157 -65q-66 -68 -66 -157q0 -91 66 -157q66 -65 157 -65t157 65q66 68 66 157z" />
    <glyph glyph-name="yen" unicode="&#xa5;" horiz-adv-x="848" 
d="M601 1199h8q16 -8 16 -20q-28 -74 -128 -412h4q50 12 132 12q6 0 16 -16v-8q0 -6 -16 -16h-8q-71 0 -144 -16q4 -60 4 -88v-32l208 36q26 -10 28 -20v-12q-2 -8 -20 -16l-16 8q-181 -32 -196 -40q0 -190 8 -456l-12 -8h-12q-10 0 -16 28q-8 289 -8 428h-4
q-109 -11 -140 -24q-6 0 -16 16q0 38 112 44q16 0 48 8q0 15 -8 120q-100 -12 -148 -12l-8 12v12q8 16 20 16q61 0 144 16v8q-89 121 -300 348q-60 33 -60 60q0 6 16 16q52 -4 328 -336q28 -40 32 -40h4l108 356q19 28 24 28z" />
    <glyph glyph-name="brokenbar" unicode="&#xa6;" 
d="M427 1578h160v-789h-160v789zM427 371h160v-789h-160v789z" />
    <glyph glyph-name="section" unicode="&#xa7;" 
d="M723 -112q0 125 -316 276q-123 64 -175 137t-53 177q0 148 89 237q67 65 170 82l-40 19q-124 64 -176 137t-52 177q0 148 90 236t232 88h3q66 0 163 -16t97 -42v-194h-51q-6 81 -78 130t-151 53h-15q-78 -1 -125 -45t-47 -117q0 -132 287 -269q149 -68 205 -144t55 -187
q0 -171 -101 -282q-47 -39 -99 -64q109 -55 159 -125t50 -180q0 -171 -101 -283q-124 -102 -277 -105v1q-6 -1 -13 -1h-3q-66 0 -163 16t-97 42v194h51q5 -81 77 -129t148 -53q113 6 185 70t72 164zM715 540q0 5 -1 10h-2q-1 14 -4 27q-22 61 -113 127q-59 29 -131 29
q-72 -1 -120 -45q-47 -44 -47 -117q0 -123 248 -250q56 16 97 53q73 65 73 166z" />
    <glyph glyph-name="dieresis" unicode="&#xa8;" horiz-adv-x="1024" 
d="M516 1183q20 0 28 -41v-3q-7 -27 -24 -27h-7q-27 6 -27 38v2q0 23 27 31h3zM381 1186h9q22 0 31 -28q0 -22 -31 -28h-9q-17 0 -19 26v3q3 27 19 27z" />
    <glyph glyph-name="copyright" unicode="&#xa9;" horiz-adv-x="1033" 
d="M385 780q0 -102 88 -119l48 4l8 -12v-4q0 -28 -28 -28h-36q-91 0 -120 152v16q0 118 72 148q31 16 64 16l12 -16q0 -32 -56 -32q-52 -23 -52 -125zM457 1149q0 -16 -92 -32q-62 -26 -108 -132q-32 -99 -32 -164v-12q0 -251 196 -344q40 -8 52 -8q92 0 208 84
q76 97 76 217t-112 279q-105 112 -188 112zM797 737q0 -181 -168 -280q-101 -40 -160 -40q-152 0 -256 216q-28 91 -28 184v8q0 170 120 304q34 25 104 40q0 12 16 20h48q114 -22 204 -128q120 -168 120 -324z" />
    <glyph glyph-name="ordfeminine" unicode="&#xaa;" horiz-adv-x="648" 
 />
    <glyph glyph-name="guillemotleft" unicode="&#xab;" horiz-adv-x="944" 
d="M843 782v-37l-205 -266l205 -266v-37h-14l-342 303l342 303h14zM530 782v-37l-205 -266l205 -266v-37h-14l-342 303l342 303h14z" />
    <glyph glyph-name="logicalnot" unicode="&#xac;" 
d="M87 767h840v-491l-1 -1h-98v392h-741v100z" />
    <glyph glyph-name="registered" unicode="&#xae;" horiz-adv-x="1054" 
d="M442 997q0 5 -32 8q-20 -5 -20 -12q14 -30 32 -160h4q54 46 68 108q-14 56 -52 56zM530 949v-8q0 -59 -60 -124v-4q83 -21 164 -148q0 -11 32 -60v-16q0 -6 -12 -12h-16q-5 1 -68 112q-73 87 -144 96v-4q8 -123 12 -132q-8 -24 -16 -24h-16q-8 0 -10 12t2 12
q-26 344 -60 344q0 37 72 52q120 -13 120 -96zM266 889v-4q0 -246 148 -420q84 -56 140 -56h8q160 24 160 56q60 79 60 204t-104 316q-126 152 -216 172h-12q-89 -13 -120 -48q-64 -76 -64 -220zM818 653v-12q0 -184 -124 -244q-84 -28 -144 -28h-12q-68 0 -168 84
q-144 187 -144 437t160 295l20 12h60q111 -22 236 -180q116 -179 116 -364z" />
    <glyph glyph-name="macron" unicode="&#xaf;" horiz-adv-x="670" 
 />
    <glyph glyph-name="degree" unicode="&#xb0;" horiz-adv-x="674" 
d="M338 1442q116 0 197 -82t81 -196t-82 -196t-198 -82t-196 81t-80 197t82 197q80 81 196 81zM339 1372q-85 0 -147 -61t-62 -148t61 -147t148 -60t147 60t60 147t-60 148t-147 61z" />
    <glyph glyph-name="plusminus" unicode="&#xb1;" 
 />
    <glyph glyph-name="uni00B2" unicode="&#xb2;" 
 />
    <glyph glyph-name="uni00B3" unicode="&#xb3;" 
 />
    <glyph glyph-name="acute" unicode="&#xb4;" horiz-adv-x="1024" 
d="M532 1215h5q27 0 27 -27q0 -13 -97 -55q-87 -43 -99 -51t-18 -8h-5q-24 3 -24 20v2q0 22 146 92q52 27 65 27z" />
    <glyph glyph-name="mu" unicode="&#xb5;" horiz-adv-x="1180" 
 />
    <glyph glyph-name="paragraph" unicode="&#xb6;" horiz-adv-x="1024" 
d="M929 1435v-70h-127v-1365h-82v1365h-166v-1365h-84v738q-174 8 -276 102t-101 249q-1 154 107 250t286 96h443z" />
    <glyph glyph-name="periodcentered" unicode="&#xb7;" horiz-adv-x="508" 
d="M256 838q14 0 31 -16l80 -86q12 -16 12 -30t-14 -30l-80 -88q-21 -20 -33 -20t-25 14l-88 101q-10 13 -10 27t16 30l82 84q15 14 29 14z" />
    <glyph glyph-name="periodcentered" unicode="&#x2219;" horiz-adv-x="508" 
d="M256 838q14 0 31 -16l80 -86q12 -16 12 -30t-14 -30l-80 -88q-21 -20 -33 -20t-25 14l-88 101q-10 13 -10 27t16 30l82 84q15 14 29 14z" />
    <glyph glyph-name="cedilla" unicode="&#xb8;" horiz-adv-x="1024" 
d="M548 40q15 0 21 -15q-3 -36 -3 -62v-18q1 -5 5 -5h51q52 0 67 -54v-10q0 -84 -97 -118l-16 -2q-43 4 -43 15v5q1 6 23 13q12 14 64 46q23 34 23 48t-18 14h-28q-6 0 -10 -3q-67 0 -67 73t28 73z" />
    <glyph glyph-name="uni00B9" unicode="&#xb9;" 
 />
    <glyph glyph-name="ordmasculine" unicode="&#xba;" horiz-adv-x="718" 
 />
    <glyph glyph-name="guillemotright" unicode="&#xbb;" horiz-adv-x="944" 
d="M414 176v37l205 266l-205 266v37h14l342 -303l-342 -303h-14zM101 176v37l205 266l-205 266v37h14l342 -303l-342 -303h-14z" />
    <glyph glyph-name="onequarter" unicode="&#xbc;" horiz-adv-x="1708" 
 />
    <glyph glyph-name="onehalf" unicode="&#xbd;" horiz-adv-x="1964" 
 />
    <glyph glyph-name="threequarters" unicode="&#xbe;" horiz-adv-x="1708" 
 />
    <glyph glyph-name="questiondown" unicode="&#xbf;" horiz-adv-x="664" 
d="M282 952q-5 0 -20 20v20q0 32 32 32t36 -40q-2 -13 -36 -32h-12zM334 -308q-78 0 -148 68q-56 71 -56 132v28q0 201 112 384q32 66 32 208q-8 66 -8 104v44q0 21 16 28h12q10 0 11 -17t-1 -23t10 -136q0 -201 -80 -308q-68 -145 -68 -292q0 -85 80 -152q62 -28 96 -28
q128 35 128 112v36l-12 16v4q0 21 16 28h16q20 -10 20 -32v-56q0 -102 -160 -148h-16z" />
    <glyph glyph-name="Agrave" unicode="&#xc0;" horiz-adv-x="739" 
d="M205 733q-4 0 -4 -97v-13q126 35 243 35v5q0 122 -133 578q-29 63 -48 71q-58 -224 -58 -579zM263 1365h4q57 -26 97 -141q111 -344 164 -879q35 -174 35 -305q-5 -13 -27 -13q-16 31 -48 318q-9 31 -40 265l-31 4q-216 -20 -216 -44v-155l-27 -371q9 -14 9 -24t-18 -20
q-35 0 -35 44q31 422 31 508q-4 55 -4 111q2 288 48 609q19 93 58 93zM229 1666h14q102 -72 213 -114q11 -11 11 -21t-18 -19h-8q-115 37 -212 111q-15 12 -15 29q10 14 15 14z" />
    <glyph glyph-name="Aacute" unicode="&#xc1;" horiz-adv-x="739" 
d="M205 733q-4 0 -4 -97v-13q126 35 243 35v5q0 122 -133 578q-29 63 -48 71q-58 -224 -58 -579zM263 1365h4q57 -26 97 -141q111 -344 164 -879q35 -174 35 -305q-5 -13 -27 -13q-16 31 -48 318q-9 31 -40 265l-31 4q-216 -20 -216 -44v-155l-27 -371q9 -14 9 -24t-18 -20
q-35 0 -35 44q31 422 31 508q-4 55 -4 111q2 288 48 609q19 93 58 93zM431 1625h5q27 0 27 -27q0 -13 -97 -55q-86 -43 -98 -51t-19 -8h-5q-24 3 -24 20v2q0 22 146 92q52 27 65 27z" />
    <glyph glyph-name="Acircumflex" unicode="&#xc2;" horiz-adv-x="739" 
d="M205 733q-4 0 -4 -97v-13q126 35 243 35v5q0 122 -133 578q-29 63 -48 71q-58 -224 -58 -579zM263 1365h4q57 -26 97 -141q111 -344 164 -879q35 -174 35 -305q-5 -13 -27 -13q-16 31 -48 318q-9 31 -40 265l-31 4q-216 -20 -216 -44v-155l-27 -371q9 -14 9 -24t-18 -20
q-35 0 -35 44q31 422 31 508q-4 55 -4 111q2 288 48 609q19 93 58 93zM378 1520q-10 0 -133 85h-2q-26 -29 -79 -102l-12 -6q-12 4 -17 15v5q2 35 99 134h9q55 -25 151 -102v-17q-6 -12 -16 -12z" />
    <glyph glyph-name="Atilde" unicode="&#xc3;" horiz-adv-x="739" 
d="M206 733q-4 0 -4 -97v-13q126 35 243 35v5q0 122 -133 578q-29 63 -48 71q-58 -224 -58 -579zM264 1365h4q57 -26 97 -141q111 -344 164 -879q35 -174 35 -305q-5 -13 -27 -13q-16 31 -48 318q-9 31 -40 265l-31 4q-216 -20 -216 -44v-155l-27 -371q9 -14 9 -24t-18 -20
q-35 0 -35 44q31 422 31 508q-4 55 -4 111q2 288 48 609q19 93 58 93zM555 1585q6 0 12 -12v-4q0 -85 -68 -108q-7 -4 -20 -4q-74 0 -152 56q-59 24 -84 24q-47 0 -84 -80h-16q-16 7 -16 28q47 92 109 92t207 -80h32q35 0 52 48l-4 8v16q0 6 16 16h16z" />
    <glyph glyph-name="Adieresis" unicode="&#xc4;" horiz-adv-x="739" 
d="M176 733q-4 0 -4 -97v-13q126 35 243 35v5q0 122 -133 578q-29 63 -48 71q-58 -224 -58 -579zM234 1365h4q57 -26 97 -141q111 -344 164 -879q35 -174 35 -305q-5 -13 -27 -13q-16 31 -48 318q-9 31 -40 265l-31 4q-216 -20 -216 -44v-155l-27 -371q9 -14 9 -24t-18 -20
q-35 0 -35 44q31 422 31 508q-4 55 -4 111q2 288 48 609q19 93 58 93zM335 1593q20 0 28 -41v-3q-7 -27 -24 -27h-7q-27 6 -27 38v2q0 23 27 31h3zM200 1596h9q22 0 31 -28q0 -22 -31 -28h-9q-17 0 -19 26v3q3 27 19 27z" />
    <glyph glyph-name="Aring" unicode="&#xc5;" horiz-adv-x="739" 
d="M205 733q-4 0 -4 -97v-13q126 35 243 35v5q0 122 -133 578q-29 63 -48 71q-58 -224 -58 -579zM263 1365h4q57 -26 97 -141q111 -344 164 -879q35 -174 35 -305q-5 -13 -27 -13q-16 31 -48 318q-9 31 -40 265l-31 4q-216 -20 -216 -44v-155l-27 -371q9 -14 9 -24t-18 -20
q-35 0 -35 44q31 422 31 508q-4 55 -4 111q2 288 48 609q19 93 58 93zM241 1638v-2q0 -32 45 -43q27 3 27 27v13q-3 19 -20 37h-3q-49 -9 -49 -32zM295 1708q42 0 56 -77v-14q-11 -61 -54 -61q0 -2 -11 -2q-45 0 -73 45q-11 19 -11 41q0 47 66 61q20 7 27 7z" />
    <glyph glyph-name="AE" unicode="&#xc6;" horiz-adv-x="861" 
d="M764 1352q0 -6 -12 -12q-22 0 -112 -4l-48 4q12 -77 12 -220q-24 -349 -24 -412q0 -10 168 -24l12 -16v-8q-2 -8 -20 -16q-63 12 -164 12q-19 -308 -23 -464q10 -82 10 -152h1l152 16v-4l8 4h16q6 0 16 -16v-8q0 -6 -16 -16h-40l-124 -16q-8 4 -12 4l-8 -4q-41 0 -44 48
v68v31q-11 76 -24 198q-9 31 -40 265l-31 4q-216 -20 -216 -44v-155l-27 -371q9 -14 9 -24t-18 -20q-35 0 -35 44q31 422 31 508q-4 55 -4 111q2 288 48 609q19 93 58 93h4q57 -26 97 -141q105 -326 158 -824q13 258 42 720v16q0 186 -24 240q0 6 16 16q40 -16 106 -14t94 2
l8 -12v-16zM205 733q-4 0 -4 -97v-13q126 35 243 35v5q0 122 -133 578q-29 63 -48 71q-58 -224 -58 -579z" />
    <glyph glyph-name="Ccedilla" unicode="&#xc7;" horiz-adv-x="636" 
d="M338 1356h28q72 -13 72 -52q0 -6 -16 -16h-16q-26 32 -56 32q-100 -35 -100 -64q-80 -152 -80 -416v-68q0 -178 48 -428q29 -183 80 -248q62 -54 114 -55t122 87h12q6 0 12 -12v-8q0 -36 -88 -92q-37 -16 -68 -16h-4q-11 1 -23 4q-1 -23 -1 -41v-18q1 -5 5 -5h51
q52 0 67 -54v-10q0 -84 -97 -118l-16 -2q-43 4 -43 15v5q1 6 23 13q12 14 64 46q23 34 23 48t-18 14h-28q-6 0 -10 -3q-67 0 -67 67q0 40 7 60q-30 16 -61 43q-71 56 -124 456q-20 86 -20 284v24q7 405 132 500q59 28 76 28z" />
    <glyph glyph-name="Egrave" unicode="&#xc8;" horiz-adv-x="575" 
d="M435 1351v-4q-7 -20 -20 -20l-116 12q-11 0 -80 -4l4 -48q0 -65 20 -528h28q33 0 52 4q90 -8 132 -8l12 -16v-12q1 -12 -25 -12t-107 8q-54 -4 -92 -4v-16q0 -282 28 -652q4 0 4 -4q151 8 180 8q17 -5 24 -20v-4q0 -6 -16 -16q-152 -4 -184 -8q-48 0 -48 52
q-28 382 -28 636v128q-20 352 -20 476q-12 60 -12 64l16 12h44q23 0 64 4l8 -4q4 0 4 4q128 -12 128 -28zM166 1666h14q102 -72 213 -114q11 -11 11 -21t-18 -19h-8q-115 37 -212 111q-15 12 -15 29q10 14 15 14z" />
    <glyph glyph-name="Eacute" unicode="&#xc9;" horiz-adv-x="575" 
d="M415 1351v-4q-7 -20 -20 -20l-116 12q-11 0 -80 -4l4 -48q0 -65 20 -528h28q33 0 52 4q90 -8 132 -8l12 -16v-12q1 -12 -25 -12t-107 8q-54 -4 -92 -4v-16q0 -282 28 -652q4 0 4 -4q151 8 180 8q17 -5 24 -20v-4q0 -6 -16 -16q-152 -4 -184 -8q-48 0 -48 52
q-28 382 -28 636v128q-20 352 -20 476q-12 60 -12 64l16 12h44q23 0 64 4l8 -4q4 0 4 4q128 -12 128 -28zM394 1625h5q27 0 27 -27q0 -13 -97 -55q-87 -43 -99 -51t-18 -8h-5q-24 3 -24 20v2q0 22 146 92q52 27 65 27z" />
    <glyph glyph-name="Ecircumflex" unicode="&#xca;" horiz-adv-x="575" 
d="M421 1351v-4q-7 -20 -20 -20l-116 12q-11 0 -80 -4l4 -48q0 -65 20 -528h28q33 0 52 4q90 -8 132 -8l12 -16v-12q1 -12 -25 -12t-107 8q-54 -4 -92 -4v-16q0 -282 28 -652q4 0 4 -4q151 8 180 8q17 -5 24 -20v-4q0 -6 -16 -16q-152 -4 -184 -8q-48 0 -48 52
q-28 382 -28 636v128q-20 352 -20 476q-12 60 -12 64l16 12h44q23 0 64 4l8 -4q4 0 4 4q128 -12 128 -28zM392 1520q-10 0 -134 85h-2q-26 -29 -79 -102l-12 -6q-12 4 -17 15v5q2 35 99 134h9q55 -25 151 -102v-17q-5 -12 -15 -12z" />
    <glyph glyph-name="Edieresis" unicode="&#xcb;" horiz-adv-x="575" 
d="M409 1351v-4q-7 -20 -20 -20l-116 12q-11 0 -80 -4l4 -48q0 -65 20 -528h28q33 0 52 4q90 -8 132 -8l12 -16v-12q1 -12 -25 -12t-107 8q-54 -4 -92 -4v-16q0 -282 28 -652q4 0 4 -4q151 8 180 8q17 -5 24 -20v-4q0 -6 -16 -16q-152 -4 -184 -8q-48 0 -48 52
q-28 382 -28 636v128q-20 352 -20 476q-12 60 -12 64l16 12h44q23 0 64 4l8 -4q4 0 4 4q128 -12 128 -28zM320 1593q20 0 28 -41v-3q-7 -27 -24 -27h-7q-27 6 -27 38v2q0 23 27 31h3zM185 1596h9q22 0 31 -28q0 -22 -31 -28h-9q-17 0 -19 26v3q3 27 19 27z" />
    <glyph glyph-name="Igrave" unicode="&#xcc;" horiz-adv-x="424" 
d="M282 1360q28 0 28 -212v-52q0 -78 -24 -404q0 -16 4 -32q-4 -209 -4 -332v-260q0 -8 8 -40q-5 -28 -16 -28h-16q-16 0 -16 108q0 694 24 956v112q0 93 -12 168q0 6 16 16h8zM160 1666h14q102 -72 213 -114q11 -11 11 -21t-18 -19h-8q-115 37 -212 111q-15 12 -15 29
q10 14 15 14z" />
    <glyph glyph-name="Iacute" unicode="&#xcd;" horiz-adv-x="424" 
d="M221 1360q28 0 28 -212v-52q0 -78 -24 -404q0 -16 4 -32q-4 -209 -4 -332v-260q0 -8 8 -40q-5 -28 -16 -28h-16q-16 0 -16 108q0 694 24 956v112q0 93 -12 168q0 6 16 16h8zM347 1625h5q27 0 27 -27q0 -13 -97 -55q-86 -43 -98 -51t-19 -8h-5q-24 3 -24 20v2q0 22 146 92
q52 27 65 27z" />
    <glyph glyph-name="Icircumflex" unicode="&#xce;" horiz-adv-x="424" 
d="M214 1360q28 0 28 -212v-52q0 -78 -24 -404q0 -16 4 -32q-4 -209 -4 -332v-260q0 -8 8 -40q-5 -28 -16 -28h-16q-16 0 -16 108q0 694 24 956v112q0 93 -12 168q0 6 16 16h8zM332 1520q-10 0 -134 85h-2q-26 -29 -79 -102l-12 -6q-12 4 -17 15v5q2 35 99 134h9
q55 -25 151 -102v-17q-5 -12 -15 -12z" />
    <glyph glyph-name="Idieresis" unicode="&#xcf;" horiz-adv-x="424" 
d="M181 1360q28 0 28 -212v-52q0 -78 -24 -404q0 -16 4 -32q-4 -209 -4 -332v-260q0 -8 8 -40q-5 -28 -16 -28h-16q-16 0 -16 108q0 694 24 956v112q0 93 -12 168q0 6 16 16h8zM239 1593q20 0 28 -41v-3q-7 -27 -24 -27h-7q-27 6 -27 38v2q0 23 27 31h3zM104 1596h9
q22 0 31 -28q0 -22 -31 -28h-9q-17 0 -19 26v3q3 27 19 27z" />
    <glyph glyph-name="Eth" unicode="&#xd0;" horiz-adv-x="612" 
d="M179 766q105 2 278 -8q-13 223 -122 454q-89 134 -168 160v-4q4 -363 12 -602zM869 743q6 0 12 -12v-12l-12 -16q-147 3 -370 14v-25v-20q0 -392 -284 -640q-35 -12 -47 -12t-17 64l4 8q-12 92 -16 260h4l-4 8v4q0 158 4 288l-2 73q-208 -3 -224 -6q-60 4 -60 20v8
q0 6 16 16q26 0 40 -4q132 4 227 6l-17 667h4q159 -52 244 -204q113 -230 126 -472q258 -13 356 -13h16zM179 436v-48q0 -152 16 -320q93 80 172 208q92 205 92 384v40v19q-75 4 -158 8q-66 -1 -121 -1q1 -36 3 -70q-4 -107 -4 -220z" />
    <glyph glyph-name="Ntilde" unicode="&#xd1;" horiz-adv-x="698" 
d="M524 747l4 190q8 79 8 126v284q3 23 22 23l23 -12q-11 -227 -11 -341v-113q0 -348 22 -898l-22 -11q-23 0 -284 886l-105 361l-8 13l-1 -22q7 -84 7 -132l1 -34q-8 -222 -8 -311q0 -448 34 -738h-23q-22 0 -22 22q-23 349 -23 625v693q4 23 24 23t180 -545
q23 -129 194 -648h11v34q-23 486 -23 525zM580 1585q6 0 12 -12v-4q0 -85 -68 -108q-7 -4 -20 -4q-74 0 -152 56q-59 24 -84 24q-47 0 -84 -80h-16q-16 7 -16 28q48 92 110 92t206 -80h32q35 0 52 48l-4 8v16q0 6 16 16h16z" />
    <glyph glyph-name="Ograve" unicode="&#xd2;" horiz-adv-x="622" 
d="M204 576q0 -226 60 -396q56 -112 100 -112h4q81 0 104 112q44 104 44 444v80q0 235 -84 540q-30 67 -60 88q-47 -18 -56 -44q-112 -237 -112 -712zM372 1372q113 0 180 -540q4 -51 4 -132v-16q0 -14 -4 -36q4 -5 4 -28v-4q0 -23 -4 -28q4 -21 4 -24q0 -422 -116 -520
q-41 -16 -56 -16h-28q-144 35 -180 372l-12 164q0 563 140 780q37 28 68 28zM256 1666h14q102 -72 213 -114q11 -11 11 -21t-18 -19h-8q-115 37 -212 111q-15 12 -15 29q10 14 15 14z" />
    <glyph glyph-name="Oacute" unicode="&#xd3;" horiz-adv-x="622" 
d="M204 576q0 -226 60 -396q56 -112 100 -112h4q81 0 104 112q44 104 44 444v80q0 235 -84 540q-30 67 -60 88q-47 -18 -56 -44q-112 -237 -112 -712zM372 1372q113 0 180 -540q4 -51 4 -132v-16q0 -14 -4 -36q4 -5 4 -28v-4q0 -23 -4 -28q4 -21 4 -24q0 -422 -116 -520
q-41 -16 -56 -16h-28q-144 35 -180 372l-12 164q0 563 140 780q37 28 68 28zM504 1625h5q27 0 27 -27q0 -13 -97 -55q-87 -43 -99 -51t-18 -8h-5q-24 3 -24 20v2q0 22 146 92q52 27 65 27z" />
    <glyph glyph-name="Ocircumflex" unicode="&#xd4;" horiz-adv-x="622" 
d="M204 576q0 -226 60 -396q56 -112 100 -112h4q81 0 104 112q44 104 44 444v80q0 235 -84 540q-30 67 -60 88q-47 -18 -56 -44q-112 -237 -112 -712zM372 1372q113 0 180 -540q4 -51 4 -132v-16q0 -14 -4 -36q4 -5 4 -28v-4q0 -23 -4 -28q4 -21 4 -24q0 -422 -116 -520
q-41 -16 -56 -16h-28q-144 35 -180 372l-12 164q0 563 140 780q37 28 68 28zM496 1520q-10 0 -134 85h-2q-26 -29 -79 -102l-12 -6q-12 4 -17 15v5q2 35 99 134h9q55 -25 151 -102v-17q-5 -12 -15 -12z" />
    <glyph glyph-name="Otilde" unicode="&#xd5;" horiz-adv-x="622" 
d="M136 576q0 -226 60 -396q56 -112 100 -112h4q81 0 104 112q44 104 44 444v80q0 235 -84 540q-30 67 -60 88q-47 -18 -56 -44q-112 -237 -112 -712zM304 1372q113 0 180 -540q4 -51 4 -132v-16q0 -14 -4 -36q4 -5 4 -28v-4q0 -23 -4 -28q4 -21 4 -24q0 -422 -116 -520
q-41 -16 -56 -16h-28q-144 35 -180 372l-12 164q0 563 140 780q37 28 68 28zM514 1585q6 0 12 -12v-4q0 -85 -68 -108q-7 -4 -20 -4q-74 0 -152 56q-59 24 -84 24q-47 0 -84 -80h-16q-16 7 -16 28q48 92 110 92t206 -80h32q35 0 52 48l-4 8v16q0 6 16 16h16z" />
    <glyph glyph-name="Odieresis" unicode="&#xd6;" horiz-adv-x="622" 
d="M204 576q0 -226 60 -396q56 -112 100 -112h4q81 0 104 112q44 104 44 444v80q0 235 -84 540q-30 67 -60 88q-47 -18 -56 -44q-112 -237 -112 -712zM372 1372q113 0 180 -540q4 -51 4 -132v-16q0 -14 -4 -36q4 -5 4 -28v-4q0 -23 -4 -28q4 -21 4 -24q0 -422 -116 -520
q-41 -16 -56 -16h-28q-144 35 -180 372l-12 164q0 563 140 780q37 28 68 28zM436 1593q20 0 28 -41v-3q-7 -27 -24 -27h-7q-27 6 -27 38v2q0 23 27 31h3zM301 1596h9q22 0 31 -28q0 -22 -31 -28h-9q-17 0 -19 26v3q3 27 19 27z" />
    <glyph glyph-name="multiply" unicode="&#xd7;" horiz-adv-x="821" 
d="M352 1016q19 0 24 -156q149 16 224 16h24q6 0 12 -12v-16q0 -6 -12 -12h-28q-81 0 -216 -16v-4q0 -60 20 -220l-12 -8h-16q-20 0 -32 224h-4q-14 0 -128 -20h-12q-6 0 -12 12v12q0 22 152 36q-4 87 -12 140q0 24 28 24z" />
    <glyph glyph-name="Oslash" unicode="&#xd8;" horiz-adv-x="622" 
d="M488 700v-16q0 -14 -4 -36q4 -5 4 -28v-4q0 -23 -4 -28q4 -21 4 -24q0 -422 -116 -520q-41 -16 -56 -16h-28q-94 23 -142 175q-35 -92 -72 -191q-15 -12 -28 -12q-16 8 -16 24q19 38 99 243q-13 59 -21 133l-12 164q0 563 140 780q37 28 68 28q90 0 150 -339
q43 98 80 187l20 16h12q6 0 16 -16v-8q-29 -34 -115 -255q21 -138 21 -257zM136 576q0 -130 20 -241q48 124 114 297q85 178 155 335q-21 130 -61 277q-30 67 -60 88q-47 -18 -56 -44q-112 -237 -112 -712zM296 68h4q81 0 104 112q44 104 44 444v80q0 89 -12 188
q-116 -238 -266 -625q11 -45 26 -87q56 -112 100 -112z" />
    <glyph glyph-name="Ugrave" unicode="&#xd9;" horiz-adv-x="698" 
d="M229 1376v-20q36 -651 88 -1048q35 -268 108 -268q52 22 52 76q0 157 -32 792q4 116 4 224v96l-4 24l4 8q-4 54 -12 112l16 12h12q17 0 24 -112q0 -8 -4 -8q4 -60 4 -88v-128l-4 -24q0 -4 4 -4q-4 -47 -4 -68v-16q32 -696 32 -820q-11 -116 -104 -116q-108 0 -144 384
q-44 342 -84 1012l16 12h8q20 -10 20 -32zM233 1666h14q102 -72 213 -114q11 -11 11 -21t-18 -19h-8q-115 37 -212 111q-15 12 -15 29q10 14 15 14z" />
    <glyph glyph-name="Uacute" unicode="&#xda;" horiz-adv-x="698" 
d="M229 1376v-20q36 -651 88 -1048q35 -268 108 -268q52 22 52 76q0 157 -32 792q4 116 4 224v96l-4 24l4 8q-4 54 -12 112l16 12h12q17 0 24 -112q0 -8 -4 -8q4 -60 4 -88v-128l-4 -24q0 -4 4 -4q-4 -47 -4 -68v-16q32 -696 32 -820q-11 -116 -104 -116q-108 0 -144 384
q-44 342 -84 1012l16 12h8q20 -10 20 -32zM481 1625h5q27 0 27 -27q0 -13 -97 -55q-86 -43 -98 -51t-19 -8h-5q-24 3 -24 20v2q0 22 146 92q52 27 65 27z" />
    <glyph glyph-name="Ucircumflex" unicode="&#xdb;" horiz-adv-x="698" 
d="M229 1376v-20q36 -651 88 -1048q35 -268 108 -268q52 22 52 76q0 157 -32 792q4 116 4 224v96l-4 24l4 8q-4 54 -12 112l16 12h12q17 0 24 -112q0 -8 -4 -8q4 -60 4 -88v-128l-4 -24q0 -4 4 -4q-4 -47 -4 -68v-16q32 -696 32 -820q-11 -116 -104 -116q-108 0 -144 384
q-44 342 -84 1012l16 12h8q20 -10 20 -32zM472 1520q-10 0 -133 85h-2q-26 -29 -79 -102l-12 -6q-12 4 -17 15v5q2 35 99 134h9q55 -25 151 -102v-17q-6 -12 -16 -12z" />
    <glyph glyph-name="Udieresis" unicode="&#xdc;" horiz-adv-x="698" 
d="M229 1376v-20q36 -651 88 -1048q35 -268 108 -268q52 22 52 76q0 157 -32 792q4 116 4 224v96l-4 24l4 8q-4 54 -12 112l16 12h12q17 0 24 -112q0 -8 -4 -8q4 -60 4 -88v-128l-4 -24q0 -4 4 -4q-4 -47 -4 -68v-16q32 -696 32 -820q-11 -116 -104 -116q-108 0 -144 384
q-44 342 -84 1012l16 12h8q20 -10 20 -32zM413 1593q20 0 28 -41v-3q-7 -27 -24 -27h-7q-27 6 -27 38v2q0 23 27 31h3zM278 1596h9q22 0 31 -28q0 -22 -31 -28h-9q-17 0 -19 26v3q3 27 19 27z" />
    <glyph glyph-name="Yacute" unicode="&#xdd;" horiz-adv-x="650" 
d="M517 1312q6 0 16 -16v-4q-32 -286 -68 -560l4 -24v-12q-14 0 -35 -297t-37 -395l-8 -4h-12q-8 2 -16 20q44 527 64 688q-108 235 -284 472q-32 23 -32 44v8q0 6 16 16h16q13 -5 24 -40q160 -198 264 -420h4q44 381 64 516l12 8h8zM451 1625h5q27 0 27 -27q0 -13 -97 -55
q-86 -43 -98 -51t-19 -8h-5q-24 3 -24 20v2q0 22 146 92q52 27 65 27z" />
    <glyph glyph-name="Thorn" unicode="&#xde;" horiz-adv-x="847" 
d="M659 746q0 86 -120 204q-132 84 -228 84q-18 8 -100 12l-24 -3q20 -498 32 -699v-3q193 58 320 151q82 76 101 156t19 98zM135 1427q36 0 48 -337q8 -3 12 -3q248 0 408 -130q108 -128 108 -212t-64 -206q-124 -134 -228 -164q-62 -33 -192 -78v-3q12 -249 12 -273
t-20 -33h-16q-16 6 -16 15q0 109 -16 279q-16 0 -28 15v10q0 5 28 18q-15 120 -36 724q0 16 -8 16l4 18q0 145 -28 316v3q0 17 20 25h12z" />
    <glyph glyph-name="germandbls" unicode="&#xdf;" horiz-adv-x="894" 
d="M421 1680q162 0 224 -250q12 -51 12 -85q0 -92 -96 -263q-48 -67 -48 -78v-6q0 -44 136 -185q100 -153 100 -266v-7q0 -157 -96 -409q-53 -107 -148 -179q-125 -60 -396 -120h-8q-24 10 -24 36q193 39 380 110q106 51 176 240q64 212 64 332q0 156 -196 357
q-40 57 -40 88v13q0 15 92 159q52 123 52 191q-39 280 -188 280h-12q-106 0 -128 -182q-4 -37 -4 -72v-87q0 -30 36 -338q32 -458 32 -585t-48 -143l-4 7q12 63 12 88q-44 705 -80 951v114q0 238 144 283q30 6 56 6z" />
    <glyph glyph-name="agrave" unicode="&#xe0;" horiz-adv-x="739" 
d="M228 1666h15q102 -72 212 -114q11 -11 11 -21t-18 -19h-7q-116 37 -213 111q-14 12 -14 29q9 14 14 14zM205 733q-4 0 -4 -97v-13q126 35 243 35v5q0 122 -133 578q-29 63 -48 71q-58 -224 -58 -579zM263 1365h4q57 -26 97 -141q111 -344 164 -879q35 -174 35 -305
q-5 -13 -27 -13q-16 31 -48 318q-9 31 -40 265l-31 4q-216 -20 -216 -44v-155l-27 -371q9 -14 9 -24t-18 -20q-35 0 -35 44q31 422 31 508q-4 55 -4 111q2 288 48 609q19 93 58 93z" />
    <glyph glyph-name="aacute" unicode="&#xe1;" horiz-adv-x="739" 
d="M432 1625h4q27 0 27 -27q0 -13 -97 -55q-85 -43 -98 -51t-19 -8h-5q-24 3 -24 20v2q0 22 146 92q52 27 66 27zM205 733q-4 0 -4 -97v-13q126 35 243 35v5q0 122 -133 578q-29 63 -48 71q-58 -224 -58 -579zM263 1365h4q57 -26 97 -141q111 -344 164 -879q35 -174 35 -305
q-5 -13 -27 -13q-16 31 -48 318q-9 31 -40 265l-31 4q-216 -20 -216 -44v-155l-27 -371q9 -14 9 -24t-18 -20q-35 0 -35 44q31 422 31 508q-4 55 -4 111q2 288 48 609q19 93 58 93z" />
    <glyph glyph-name="acircumflex" unicode="&#xe2;" horiz-adv-x="739" 
d="M378 1520q-10 0 -132 85h-3q-26 -29 -79 -102l-11 -6q-12 4 -18 15v5q3 35 99 134h9q55 -25 151 -102v-17q-6 -12 -16 -12zM205 733q-4 0 -4 -97v-13q126 35 243 35v5q0 122 -133 578q-29 63 -48 71q-58 -224 -58 -579zM263 1365h4q57 -26 97 -141q111 -344 164 -879
q35 -174 35 -305q-5 -13 -27 -13q-16 31 -48 318q-9 31 -40 265l-31 4q-216 -20 -216 -44v-155l-27 -371q9 -14 9 -24t-18 -20q-35 0 -35 44q31 422 31 508q-4 55 -4 111q2 288 48 609q19 93 58 93z" />
    <glyph glyph-name="atilde" unicode="&#xe3;" horiz-adv-x="739" 
d="M555 1585q6 0 12 -12v-4q0 -85 -68 -108q-7 -4 -20 -4q-74 0 -152 56q-59 24 -84 24q-47 0 -84 -80h-16q-16 7 -16 28q47 92 109 92t207 -80h32q35 0 52 48l-4 8v16q0 6 16 16h16zM206 733q-4 0 -4 -97v-13q126 35 243 35v5q0 122 -133 578q-29 63 -48 71
q-58 -224 -58 -579zM264 1365h4q57 -26 97 -141q111 -344 164 -879q35 -174 35 -305q-5 -13 -27 -13q-16 31 -48 318q-9 31 -40 265l-31 4q-216 -20 -216 -44v-155l-27 -371q9 -14 9 -24t-18 -20q-35 0 -35 44q31 422 31 508q-4 55 -4 111q2 288 48 609q19 93 58 93z" />
    <glyph glyph-name="adieresis" unicode="&#xe4;" horiz-adv-x="739" 
d="M334 1593q21 0 29 -41v-3q-8 -27 -24 -27h-8q-26 6 -26 38v2q0 23 26 31h3zM200 1596h9q21 0 31 -28q0 -22 -31 -28h-9q-18 0 -19 26v3q3 27 19 27zM176 733q-4 0 -4 -97v-13q126 35 243 35v5q0 122 -133 578q-29 63 -48 71q-58 -224 -58 -579zM234 1365h4
q57 -26 97 -141q111 -344 164 -879q35 -174 35 -305q-5 -13 -27 -13q-16 31 -48 318q-9 31 -40 265l-31 4q-216 -20 -216 -44v-155l-27 -371q9 -14 9 -24t-18 -20q-35 0 -35 44q31 422 31 508q-4 55 -4 111q2 288 48 609q19 93 58 93z" />
    <glyph glyph-name="aring" unicode="&#xe5;" horiz-adv-x="739" 
d="M240 1638v-2q0 -32 46 -43q27 3 27 27v13q-3 19 -21 37h-2q-50 -9 -50 -32zM295 1708q42 0 56 -77v-14q-11 -61 -54 -61q0 -2 -11 -2q-45 0 -73 45q-11 19 -11 41q0 47 65 61q21 7 28 7zM205 733q-4 0 -4 -97v-13q126 35 243 35v5q0 122 -133 578q-29 63 -48 71
q-58 -224 -58 -579zM263 1365h4q57 -26 97 -141q111 -344 164 -879q35 -174 35 -305q-5 -13 -27 -13q-16 31 -48 318q-9 31 -40 265l-31 4q-216 -20 -216 -44v-155l-27 -371q9 -14 9 -24t-18 -20q-35 0 -35 44q31 422 31 508q-4 55 -4 111q2 288 48 609q19 93 58 93z" />
    <glyph glyph-name="ae" unicode="&#xe6;" horiz-adv-x="861" 
d="M764 1352q0 -6 -12 -12q-22 0 -112 -4l-48 4q12 -77 12 -220q-24 -349 -24 -412q0 -10 168 -24l12 -16v-8q-2 -8 -20 -16q-63 12 -164 12q-19 -308 -23 -464q10 -82 10 -152h1l152 16v-4l8 4h16q6 0 16 -16v-8q0 -6 -16 -16h-40l-124 -16q-8 4 -12 4l-8 -4q-41 0 -44 48
v68v31q-11 76 -24 198q-9 31 -40 265l-31 4q-216 -20 -216 -44v-155l-27 -371q9 -14 9 -24t-18 -20q-35 0 -35 44q31 422 31 508q-4 55 -4 111q2 288 48 609q19 93 58 93h4q57 -26 97 -141q105 -326 158 -824q13 258 42 720v16q0 186 -24 240q0 6 16 16q40 -16 106 -14t94 2
l8 -12v-16zM205 733q-4 0 -4 -97v-13q126 35 243 35v5q0 122 -133 578q-29 63 -48 71q-58 -224 -58 -579z" />
    <glyph glyph-name="ccedilla" unicode="&#xe7;" horiz-adv-x="636" 
d="M338 1356h28q72 -13 72 -52q0 -6 -16 -16h-16q-26 32 -56 32q-100 -35 -100 -64q-80 -152 -80 -416v-68q0 -178 48 -428q29 -183 80 -248q62 -54 114 -55t122 87h12q6 0 12 -12v-8q0 -36 -88 -92q-37 -16 -68 -16h-4q-11 1 -23 4q-1 -23 -1 -41v-18q1 -5 5 -5h51
q52 0 67 -54v-10q0 -84 -97 -118l-16 -2q-43 4 -43 15v5q1 6 23 13q12 14 64 46q23 34 23 48t-18 14h-28q-6 0 -10 -3q-67 0 -67 67q0 40 7 60q-30 16 -61 43q-71 56 -124 456q-20 86 -20 284v24q7 405 132 500q59 28 76 28z" />
    <glyph glyph-name="egrave" unicode="&#xe8;" horiz-adv-x="575" 
d="M166 1666h14q102 -72 213 -114q11 -11 11 -21t-18 -19h-8q-115 37 -212 111q-15 12 -15 29q10 14 15 14zM410 1352q0 -6 -12 -12q-22 0 -112 -4l-48 4q12 -77 12 -220q-24 -349 -24 -412q0 -10 168 -24l12 -16v-8q-2 -8 -20 -16q-63 12 -164 12q-24 -390 -24 -536v-72
q1 -8 8 -8h4l152 16v-4l8 4h16q6 0 16 -16v-8q0 -6 -16 -16h-40l-124 -16q-8 4 -12 4l-8 -4q-41 0 -44 48v68q0 168 52 1004v16q0 186 -24 240q0 6 16 16q40 -16 106 -14t94 2l8 -12v-16z" />
    <glyph glyph-name="eacute" unicode="&#xe9;" horiz-adv-x="575" 
d="M407 1625h5q27 0 27 -27q0 -13 -97 -55q-86 -43 -98 -51t-19 -8h-5q-24 3 -24 20v2q0 22 146 92q52 27 65 27zM403 1352q0 -6 -12 -12q-22 0 -112 -4l-48 4q12 -77 12 -220q-24 -349 -24 -412q0 -10 168 -24l12 -16v-8q-2 -8 -20 -16q-63 12 -164 12q-24 -390 -24 -536
v-72q1 -8 8 -8h4l152 16v-4l8 4h16q6 0 16 -16v-8q0 -6 -16 -16h-40l-124 -16q-8 4 -12 4l-8 -4q-41 0 -44 48v68q0 168 52 1004v16q0 186 -24 240q0 6 16 16q41 -16 107 -14t93 2l8 -12v-16z" />
    <glyph glyph-name="ecircumflex" unicode="&#xea;" horiz-adv-x="575" 
d="M395 1520q-11 0 -133 85h-3q-25 -29 -78 -102l-12 -6q-12 4 -17 15v5q2 35 98 134h9q56 -25 151 -102v-17q-4 -12 -15 -12zM400 1352q0 -6 -12 -12q-22 0 -112 -4l-48 4q12 -77 12 -220q-24 -349 -24 -412q0 -10 168 -24l12 -16v-8q-2 -8 -20 -16q-63 12 -164 12
q-24 -390 -24 -536v-72q1 -8 8 -8h4l152 16v-4l8 4h16q6 0 16 -16v-8q0 -6 -16 -16h-40l-124 -16q-8 4 -12 4l-8 -4q-41 0 -44 48v68q0 168 52 1004v16q0 186 -24 240q0 6 16 16q40 -16 106 -14t94 2l8 -12v-16z" />
    <glyph glyph-name="edieresis" unicode="&#xeb;" horiz-adv-x="575" 
d="M333 1593q21 0 28 -41v-3q-7 -27 -23 -27h-8q-26 6 -26 38v2q0 23 26 31h3zM199 1596h9q21 0 31 -28q0 -22 -31 -28h-9q-18 0 -20 26v3q4 27 20 27zM397 1352q0 -6 -12 -12q-22 0 -112 -4l-48 4q12 -77 12 -220q-24 -349 -24 -412q0 -10 168 -24l12 -16v-8q-2 -8 -20 -16
q-63 12 -164 12q-24 -390 -24 -536v-72q1 -8 8 -8h4l152 16v-4l8 4h16q6 0 16 -16v-8q0 -6 -16 -16h-40l-124 -16q-8 4 -12 4l-8 -4q-41 0 -44 48v68q0 168 52 1004v16q0 186 -24 240q0 6 16 16q41 -16 107 -14t93 2l8 -12v-16z" />
    <glyph glyph-name="igrave" unicode="&#xec;" horiz-adv-x="424" 
d="M160 1666h14q102 -72 213 -114q11 -11 11 -21t-18 -19h-8q-115 37 -212 111q-15 12 -15 29q10 14 15 14zM282 1360q28 0 28 -212v-52q0 -78 -24 -404q0 -16 4 -32q-4 -209 -4 -332v-260q0 -8 8 -40q-5 -28 -16 -28h-16q-16 0 -16 108q0 694 24 956v112q0 93 -12 168
q0 6 16 16h8z" />
    <glyph glyph-name="iacute" unicode="&#xed;" horiz-adv-x="424" 
d="M347 1625h5q27 0 27 -27q0 -13 -97 -55q-86 -43 -98 -51t-19 -8h-5q-24 3 -24 20v2q0 22 146 92q52 27 65 27zM221 1360q28 0 28 -212v-52q0 -78 -24 -404q0 -16 4 -32q-4 -209 -4 -332v-260q0 -8 8 -40q-5 -28 -16 -28h-16q-16 0 -16 108q0 694 24 956v112q0 93 -12 168
q0 6 16 16h8z" />
    <glyph glyph-name="icircumflex" unicode="&#xee;" horiz-adv-x="424" 
d="M332 1520q-10 0 -134 85h-2q-26 -29 -79 -102l-12 -6q-12 4 -17 15v5q2 35 99 134h9q55 -25 151 -102v-17q-5 -12 -15 -12zM214 1360q28 0 28 -212v-52q0 -78 -24 -404q0 -16 4 -32q-4 -209 -4 -332v-260q0 -8 8 -40q-5 -28 -16 -28h-16q-16 0 -16 108q0 694 24 956v112
q0 93 -12 168q0 6 16 16h8z" />
    <glyph glyph-name="idieresis" unicode="&#xef;" horiz-adv-x="424" 
d="M239 1593q20 0 28 -41v-3q-7 -27 -24 -27h-7q-27 6 -27 38v2q0 23 27 31h3zM104 1596h9q22 0 31 -28q0 -22 -31 -28h-9q-17 0 -19 26v3q3 27 19 27zM181 1360q28 0 28 -212v-52q0 -78 -24 -404q0 -16 4 -32q-4 -209 -4 -332v-260q0 -8 8 -40q-5 -28 -16 -28h-16
q-16 0 -16 108q0 694 24 956v112q0 93 -12 168q0 6 16 16h8z" />
    <glyph glyph-name="eth" unicode="&#xf0;" horiz-adv-x="612" 
d="M259 767q36 0 163 -7q1 8 1 16q0 314 -72 416q-44 92 -164 136v-4q52 -161 72 -557zM459 932v-120q0 -16 4 -32l-2 -22q287 -15 392 -15h16q6 0 12 -12v-12l-12 -16q-160 3 -410 16q-26 -341 -68 -431q0 -44 -84 -212q-52 -76 -64 -76q-28 6 -28 16v16q20 31 20 56
q-8 16 -6 26t6 10q-4 52 -4 216t-10 386q-285 -4 -304 -7q-60 4 -60 20v8q0 6 16 16q26 0 40 -4q193 6 307 7q-24 487 -97 598v8q0 6 16 16h24q19 -20 96 -44q114 -71 160 -200q40 -134 40 -212zM419 721q-122 6 -158 6q10 -222 10 -515v-16q4 -80 4 -88q68 102 116 344
q17 113 28 269z" />
    <glyph glyph-name="ntilde" unicode="&#xf1;" horiz-adv-x="698" 
d="M566 1585q6 0 12 -12v-4q0 -85 -68 -108q-7 -4 -20 -4q-74 0 -152 56q-59 24 -84 24q-47 0 -84 -80h-16q-16 7 -16 28q48 92 110 92t206 -80h32q35 0 52 48l-4 8v16q0 6 16 16h16zM428 1225q0 -79 88 -729l36 -408q-6 -20 -27 -20t-77 284q-36 130 -140 564
q-60 172 -88 304h-4l4 -48q0 -80 -16 -488q8 -367 32 -660v-8q-6 -16 -28 -16l-16 12l4 36q-24 261 -32 632q16 398 16 448t-4 124q4 8 2 18t-2 26q0 64 20 64q37 0 60 -132q136 -450 208 -788q24 -88 24 -96h4q-20 192 -60 500t-44 408q4 77 4 100l16 12h12l16 -16
q-8 -44 -8 -123z" />
    <glyph glyph-name="ograve" unicode="&#xf2;" horiz-adv-x="622" 
d="M188 1666h14q102 -72 213 -114q11 -11 11 -21t-18 -19h-8q-115 37 -212 111q-15 12 -15 29q10 14 15 14zM328 40q80 0 80 536v8q0 343 -44 604q-32 80 -44 80h-4q-72 -46 -108 -356l-8 -116q13 -407 32 -556q33 -200 96 -200zM336 1308q30 0 72 -132q40 -296 40 -592
q0 -462 -56 -548q-31 -36 -56 -36h-16q-109 0 -140 348q-8 133 -16 380v76q0 244 76 432q-4 7 -4 16l68 56h32z" />
    <glyph glyph-name="oacute" unicode="&#xf3;" horiz-adv-x="622" 
d="M436 1625h5q27 0 27 -27q0 -13 -97 -55q-87 -43 -99 -51t-18 -8h-5q-24 3 -24 20v2q0 22 146 92q52 27 65 27zM328 40q80 0 80 536v8q0 343 -44 604q-32 80 -44 80h-4q-72 -46 -108 -356l-8 -116q13 -407 32 -556q33 -200 96 -200zM336 1308q30 0 72 -132
q40 -296 40 -592q0 -462 -56 -548q-31 -36 -56 -36h-16q-109 0 -140 348q-8 133 -16 380v76q0 244 76 432q-4 7 -4 16l68 56h32z" />
    <glyph glyph-name="ocircumflex" unicode="&#xf4;" horiz-adv-x="622" 
d="M427 1520q-11 0 -133 85h-3q-25 -29 -78 -102l-12 -6q-12 4 -17 15v5q2 35 98 134h9q56 -25 151 -102v-17q-4 -12 -15 -12zM328 40q80 0 80 536v8q0 343 -44 604q-32 80 -44 80h-4q-72 -46 -108 -356l-8 -116q13 -407 32 -556q33 -200 96 -200zM336 1308q30 0 72 -132
q40 -296 40 -592q0 -462 -56 -548q-31 -36 -56 -36h-16q-109 0 -140 348q-8 133 -16 380v76q0 244 76 432q-4 7 -4 16l68 56h32z" />
    <glyph glyph-name="otilde" unicode="&#xf5;" horiz-adv-x="622" 
d="M514 1585q6 0 12 -12v-4q0 -85 -68 -108q-7 -4 -20 -4q-74 0 -152 56q-59 24 -84 24q-47 0 -84 -80h-16q-16 7 -16 28q48 92 110 92t206 -80h32q35 0 52 48l-4 8v16q0 6 16 16h16zM328 40q80 0 80 536v8q0 343 -44 604q-32 80 -44 80h-4q-72 -46 -108 -356l-8 -116
q13 -407 32 -556q33 -200 96 -200zM336 1308q30 0 72 -132q40 -296 40 -592q0 -462 -56 -548q-31 -36 -56 -36h-16q-109 0 -140 348q-8 133 -16 380v76q0 244 76 432q-4 7 -4 16l68 56h32z" />
    <glyph glyph-name="odieresis" unicode="&#xf6;" horiz-adv-x="622" 
d="M368 1593q21 0 28 -41v-3q-7 -27 -23 -27h-8q-26 6 -26 38v2q0 23 26 31h3zM234 1596h9q21 0 31 -28q0 -22 -31 -28h-9q-18 0 -20 26v3q4 27 20 27zM328 40q80 0 80 536v8q0 343 -44 604q-32 80 -44 80h-4q-72 -46 -108 -356l-8 -116q13 -407 32 -556q33 -200 96 -200z
M336 1308q30 0 72 -132q40 -296 40 -592q0 -462 -56 -548q-31 -36 -56 -36h-16q-109 0 -140 348q-8 133 -16 380v76q0 244 76 432q-4 7 -4 16l68 56h32z" />
    <glyph glyph-name="divide" unicode="&#xf7;" horiz-adv-x="821" 
d="M352 1016q19 0 24 -156q149 16 224 16h24q6 0 12 -12v-16q0 -6 -12 -12h-28q-81 0 -216 -16v-4q0 -60 20 -220l-12 -8h-16q-20 0 -32 224h-4q-14 0 -128 -20h-12q-6 0 -12 12v12q0 22 152 36q-4 87 -12 140q0 24 28 24z" />
    <glyph glyph-name="oslash" unicode="&#xf8;" horiz-adv-x="622" 
d="M566 1236q6 0 16 -16v-8q-30 -35 -120 -268l-25 -50q11 -155 11 -310q0 -462 -56 -548q-31 -36 -56 -36h-16q-102 0 -136 304q-53 -136 -110 -292q-15 -12 -28 -12q-16 8 -16 24q24 48 148 367q-7 127 -14 337v76q0 244 76 432q-4 7 -4 16l68 56h32q30 0 72 -132
q13 -99 22 -198q57 128 104 242l20 16h12zM408 576v8q0 124 -6 237q-84 -179 -184 -431q24 -350 110 -350q80 0 80 536zM320 1268h-4q-72 -46 -108 -356l-8 -116q6 -182 13 -313q27 69 57 149q68 143 127 272q-11 152 -33 284q-32 80 -44 80z" />
    <glyph glyph-name="ugrave" unicode="&#xf9;" horiz-adv-x="698" 
d="M233 1666h14q102 -72 213 -114q11 -11 11 -21t-18 -19h-8q-115 37 -212 111q-15 12 -15 29q10 14 15 14zM229 1376v-20q36 -651 88 -1048q35 -268 108 -268q52 22 52 76q0 157 -32 792q4 116 4 224v96l-4 24l4 8q-4 54 -12 112l16 12h12q17 0 24 -112q0 -8 -4 -8
q4 -60 4 -88v-128l-4 -24q0 -4 4 -4q-4 -47 -4 -68v-16q32 -696 32 -820q-11 -116 -104 -116q-108 0 -144 384q-44 342 -84 1012l16 12h8q20 -10 20 -32z" />
    <glyph glyph-name="uacute" unicode="&#xfa;" horiz-adv-x="698" 
d="M481 1625h5q27 0 27 -27q0 -13 -97 -55q-86 -43 -98 -51t-19 -8h-5q-24 3 -24 20v2q0 22 146 92q52 27 65 27zM229 1376v-20q36 -651 88 -1048q35 -268 108 -268q52 22 52 76q0 157 -32 792q4 116 4 224v96l-4 24l4 8q-4 54 -12 112l16 12h12q17 0 24 -112q0 -8 -4 -8
q4 -60 4 -88v-128l-4 -24q0 -4 4 -4q-4 -47 -4 -68v-16q32 -696 32 -820q-11 -116 -104 -116q-108 0 -144 384q-44 342 -84 1012l16 12h8q20 -10 20 -32z" />
    <glyph glyph-name="ucircumflex" unicode="&#xfb;" horiz-adv-x="698" 
d="M472 1520q-11 0 -133 85h-3q-25 -29 -78 -102l-12 -6q-12 4 -17 15v5q2 35 98 134h9q56 -25 151 -102v-17q-4 -12 -15 -12zM229 1376v-20q36 -651 88 -1048q35 -268 108 -268q52 22 52 76q0 157 -32 792q4 116 4 224v96l-4 24l4 8q-4 54 -12 112l16 12h12q17 0 24 -112
q0 -8 -4 -8q4 -60 4 -88v-128l-4 -24q0 -4 4 -4q-4 -47 -4 -68v-16q32 -696 32 -820q-11 -116 -104 -116q-108 0 -144 384q-44 342 -84 1012l16 12h8q20 -10 20 -32z" />
    <glyph glyph-name="udieresis" unicode="&#xfc;" horiz-adv-x="698" 
d="M413 1593q21 0 28 -41v-3q-7 -27 -23 -27h-8q-26 6 -26 38v2q0 23 26 31h3zM279 1596h9q21 0 31 -28q0 -22 -31 -28h-9q-18 0 -20 26v3q4 27 20 27zM229 1376v-20q36 -651 88 -1048q35 -268 108 -268q52 22 52 76q0 157 -32 792q4 116 4 224v96l-4 24l4 8q-4 54 -12 112
l16 12h12q17 0 24 -112q0 -8 -4 -8q4 -60 4 -88v-128l-4 -24q0 -4 4 -4q-4 -47 -4 -68v-16q32 -696 32 -820q-11 -116 -104 -116q-108 0 -144 384q-44 342 -84 1012l16 12h8q20 -10 20 -32z" />
    <glyph glyph-name="yacute" unicode="&#xfd;" horiz-adv-x="650" 
d="M451 1625h5q27 0 27 -27q0 -13 -97 -55q-86 -43 -98 -51t-19 -8h-5q-24 3 -24 20v2q0 22 146 92q52 27 65 27zM517 1312q6 0 16 -16v-4q-32 -286 -68 -560l4 -24v-12q-14 0 -35 -297t-37 -395l-8 -4h-12q-8 2 -16 20q44 527 64 688q-108 235 -284 472q-32 23 -32 44v8
q0 6 16 16h16q13 -5 24 -40q160 -198 264 -420h4q44 381 64 516l12 8h8z" />
    <glyph glyph-name="thorn" unicode="&#xfe;" horiz-adv-x="847" 
d="M659 746q0 86 -120 204q-132 84 -228 84q-18 8 -100 12l-24 -3q20 -498 32 -699v-3q193 58 320 151q82 76 101 156t19 98zM135 1427q36 0 48 -337q8 -3 12 -3q248 0 408 -130q108 -128 108 -212t-64 -206q-124 -134 -228 -164q-62 -33 -192 -78v-3q12 -249 12 -273
t-20 -33h-16q-16 6 -16 15q0 109 -16 279q-16 0 -28 15v10q0 5 28 18q-15 120 -36 724q0 16 -8 16l4 18q0 145 -28 316v3q0 17 20 25h12z" />
    <glyph glyph-name="ydieresis" unicode="&#xff;" horiz-adv-x="650" 
d="M517 1312q6 0 16 -16v-4q-32 -286 -68 -560l4 -24v-12q-14 0 -35 -297t-37 -395l-8 -4h-12q-8 2 -16 20q44 527 64 688q-108 235 -284 472q-32 23 -32 44v8q0 6 16 16h16q13 -5 24 -40q160 -198 264 -420h4q44 381 64 516l12 8h8zM397 1553q20 0 28 -41v-3
q-7 -27 -24 -27h-7q-27 6 -27 38v2q0 23 27 31h3zM262 1556h9q22 0 31 -28q0 -22 -31 -28h-9q-17 0 -19 26v3q3 27 19 27z" />
    <glyph glyph-name="Aogonek" unicode="&#x104;" horiz-adv-x="739" 
d="M205 733q-4 0 -4 -97v-13q126 35 243 35v5q0 122 -133 578q-29 63 -48 71q-58 -224 -58 -579zM563 40l-4 -10v-20q0 -18 -80 -196v-5q21 -70 65 -70h30q24 0 56 45h15q7 0 20 -20q0 -57 -86 -75h-35q-86 0 -115 120v5q0 23 75 186q14 40 25 40h2q-16 57 -43 305
q-9 31 -40 265l-31 4q-216 -20 -216 -44v-155l-27 -371q9 -14 9 -24t-18 -20q-35 0 -35 44q31 422 31 508q-4 55 -4 111q2 288 48 609q19 93 58 93h4q57 -26 97 -141q111 -344 164 -879q35 -174 35 -305z" />
    <glyph glyph-name="aogonek" unicode="&#x105;" horiz-adv-x="739" 
d="M205 733q-4 0 -4 -97v-13q126 35 243 35v5q0 122 -133 578q-29 63 -48 71q-58 -224 -58 -579zM263 1365h4q57 -26 97 -141q111 -344 164 -879q35 -174 35 -305q-5 -13 -27 -13q-16 31 -48 318q-9 31 -40 265l-31 4q-216 -20 -216 -44v-155l-27 -371q9 -14 9 -24t-18 -20
q-35 0 -35 44q31 422 31 508q-4 55 -4 111q2 288 48 609q19 93 58 93zM533 26h20q10 -2 10 -10v-20q0 -18 -80 -196v-5q21 -70 65 -70h30q24 0 56 45h15q7 0 20 -20q0 -57 -86 -75h-35q-86 0 -115 120v5q0 23 75 186q14 40 25 40z" />
    <glyph glyph-name="Cacute" unicode="&#x106;" horiz-adv-x="636" 
d="M338 1356h28q72 -13 72 -52q0 -6 -16 -16h-16q-26 32 -56 32q-100 -35 -100 -64q-80 -152 -80 -416v-68q0 -178 48 -428q29 -183 80 -248q62 -54 114 -55t122 87h12q6 0 12 -12v-8q0 -36 -88 -92q-37 -16 -68 -16h-4q-59 7 -124 64q-71 56 -124 456q-20 86 -20 284v24
q7 405 132 500q59 28 76 28zM474 1625h5q27 0 27 -27q0 -13 -97 -55q-87 -43 -99 -51t-18 -8h-5q-24 3 -24 20v2q0 22 146 92q52 27 65 27z" />
    <glyph glyph-name="cacute" unicode="&#x107;" horiz-adv-x="636" 
d="M338 1356h28q72 -13 72 -52q0 -6 -16 -16h-16q-26 32 -56 32q-100 -35 -100 -64q-80 -152 -80 -416v-68q0 -178 48 -428q29 -183 80 -248q62 -54 114 -55t122 87h12q6 0 12 -12v-8q0 -36 -88 -92q-37 -16 -68 -16h-4q-59 7 -124 64q-71 56 -124 456q-20 86 -20 284v24
q7 405 132 500q59 28 76 28zM405 1592h5q27 0 27 -27q0 -13 -97 -55q-86 -44 -98 -52t-19 -7h-5q-24 3 -24 20v2q0 22 146 92q52 27 65 27z" />
    <glyph glyph-name="Eogonek" unicode="&#x118;" horiz-adv-x="575" 
d="M415 1351v-4q-7 -20 -20 -20l-116 12q-11 0 -80 -4l4 -48q0 -65 20 -528h28q33 0 52 4q90 -8 132 -8l12 -16v-12q1 -12 -25 -12t-107 8q-54 -4 -92 -4v-16q0 -282 28 -652q4 0 4 -4q151 8 180 8q17 -5 24 -20v-4q0 -6 -16 -16q-152 -4 -184 -8q-48 0 -48 52
q-28 382 -28 636v128q-20 352 -20 476q-12 60 -12 64l16 12h44q23 0 64 4l8 -4q4 0 4 4q128 -12 128 -28zM254 -8h20q10 -2 10 -10v-20q0 -18 -80 -196v-5q21 -70 65 -70h30q24 0 56 45h15q7 0 20 -20q0 -57 -86 -75h-35q-86 0 -115 120v5q0 23 75 186q14 40 25 40z" />
    <glyph glyph-name="eogonek" unicode="&#x119;" horiz-adv-x="575" 
d="M426 1351v-4q-7 -20 -20 -20l-116 12q-11 0 -80 -4l4 -48q0 -65 20 -528h28q33 0 52 4q90 -8 132 -8l12 -16v-12q0 -12 -26 -12t-106 8q-54 -4 -92 -4v-16q0 -282 28 -652q4 0 4 -4q151 8 180 8q17 -5 24 -20v-4q0 -6 -16 -16q-152 -4 -184 -8q-48 0 -48 52
q-28 382 -28 636v128q-20 352 -20 476q-12 60 -12 64l16 12h44q23 0 64 4l8 -4q4 0 4 4q128 -12 128 -28zM251 3h20q10 -2 10 -10v-20q0 -18 -80 -196v-5q21 -70 65 -70h30q24 0 56 45h15q7 0 20 -20q0 -57 -86 -75h-35q-86 0 -115 120v5q0 23 75 186q14 40 25 40z" />
    <glyph glyph-name="dotlessi" unicode="&#x131;" horiz-adv-x="514" 
d="M328 223q0 -173 100 -173h46v-50h-442v50h46q100 0 100 173v432q0 77 -111 77h-48v44q222 69 261 182h48v-735z" />
    <glyph glyph-name="Lslash" unicode="&#x141;" horiz-adv-x="575" 
d="M165 1436h4q6 0 16 -16q0 -20 -8 -20l4 -8q23 -362 27 -631q244 -192 333 -251q4 -2 4 -16l-4 -12l-12 -12q-120 84 -320 241v-55q12 -97 12 -268v-348h216q6 0 12 -12v-12q0 -16 -68 -16h-184q-6 0 -16 16v24q0 28 4 28l-4 48v292q-5 175 -11 330q-194 125 -207 129
q-35 28 -31 43t18 19q16 -10 22 -20q126 -77 197 -122q-10 282 -20 497l-12 132q6 20 28 20z" />
    <glyph glyph-name="lslash" unicode="&#x142;" horiz-adv-x="575" 
d="M165 1436h4q6 0 16 -16q0 -20 -8 -20l4 -8q26 -410 28 -699q247 -188 334 -247q4 -2 8 -16v-12l-8 -12q-123 86 -334 246q12 -97 12 -264v-348h216q6 0 12 -12v-12q0 -16 -68 -16h-184q-6 0 -16 16v24q0 28 4 28l-4 48v292q-4 141 -9 269q-188 122 -200 126
q-36 28 -36 44v8q0 6 10 10q16 -10 24 -20q131 -81 201 -127q-11 325 -22 566l-12 132q6 20 28 20z" />
    <glyph glyph-name="Nacute" unicode="&#x143;" horiz-adv-x="698" 
d="M550 747l4 190q8 79 8 126v284q3 23 22 23l23 -12q-11 -227 -11 -341v-113q0 -348 22 -898l-22 -11q-23 0 -284 886l-105 361l-8 13l-1 -22q7 -84 7 -132l1 -34q-8 -222 -8 -311q0 -448 34 -738h-23q-22 0 -22 22q-23 349 -23 625v693q4 23 24 23t180 -545
q23 -129 194 -648h11v34q-23 486 -23 525zM466 1598h5q27 0 27 -27q0 -13 -97 -55q-87 -44 -99 -52t-18 -7h-5q-24 3 -24 20v2q0 22 146 92q52 27 65 27z" />
    <glyph glyph-name="nacute" unicode="&#x144;" horiz-adv-x="698" 
d="M550 747l4 190q8 79 8 126v284q3 23 22 23l23 -12q-11 -227 -11 -341v-113q0 -348 22 -898l-22 -11q-23 0 -284 886l-105 361l-8 13l-1 -22q7 -84 7 -132l1 -34q-8 -222 -8 -311q0 -448 34 -738h-23q-22 0 -22 22q-23 349 -23 625v693q4 23 24 23t180 -545
q23 -129 194 -648h11v34q-23 486 -23 525zM452 1578h5q27 0 27 -27q0 -13 -97 -55q-87 -44 -99 -52t-18 -7h-5q-24 3 -24 20v2q0 22 146 92q52 27 65 27z" />
    <glyph glyph-name="Sacute" unicode="&#x15a;" horiz-adv-x="575" 
d="M358 1329q0 -5 -20 -19h-40q-106 0 -144 -79q-32 -87 -32 -173t56 -235q20 -40 216 -217q100 -144 100 -270t-48 -231q-22 -50 -120 -86q-35 -19 -56 -19t-28 15v11q0 11 44 15q132 50 132 105q36 72 36 187q0 151 -136 296q-107 81 -160 157q-36 39 -72 206q0 20 -4 52
q0 128 48 228q55 79 216 79l12 -15v-7zM418 1625h5q27 0 27 -27q0 -13 -97 -55q-87 -43 -99 -51t-18 -8h-5q-24 3 -24 20v2q0 22 146 92q52 27 65 27z" />
    <glyph glyph-name="sacute" unicode="&#x15b;" horiz-adv-x="575" 
d="M358 1329q0 -5 -20 -19h-40q-106 0 -144 -79q-32 -87 -32 -173t56 -235q20 -40 216 -217q100 -144 100 -270t-48 -231q-22 -50 -120 -86q-35 -19 -56 -19t-28 15v11q0 11 44 15q132 50 132 105q36 72 36 187q0 151 -136 296q-107 81 -160 157q-36 39 -72 206q0 20 -4 52
q0 128 48 228q55 79 216 79l12 -15v-7zM377 1618h5q27 0 27 -27q0 -13 -97 -55q-86 -44 -98 -52t-19 -7h-5q-24 3 -24 20v2q0 22 146 92q52 27 65 27z" />
    <glyph glyph-name="Zacute" unicode="&#x179;" horiz-adv-x="725" 
d="M181 1208q0 -15 256 -24q72 -8 72 -36v-4q-88 -241 -212 -728q-88 -238 -88 -364q33 -8 90 -8t194 4q28 -3 28 -8l8 4h8q6 0 16 -16v-12q0 -8 -24 -16q-33 8 -77 8t-171 -4q-67 8 -112 8q-8 13 -8 20q0 99 92 388q24 68 132 484q48 134 76 232q-50 11 -288 24
q-16 18 -16 28t16 20h8zM485 1625h5q27 0 27 -27q0 -13 -97 -55q-86 -43 -98 -51t-19 -8h-5q-24 3 -24 20v2q0 22 146 92q52 27 65 27z" />
    <glyph glyph-name="zacute" unicode="&#x17a;" horiz-adv-x="725" 
d="M181 1208q0 -15 256 -24q72 -8 72 -36v-4q-88 -241 -212 -728q-88 -238 -88 -364q33 -8 90 -8t194 4q28 -3 28 -8l8 4h8q6 0 16 -16v-12q0 -8 -24 -16q-33 8 -77 8t-171 -4q-67 8 -112 8q-8 13 -8 20q0 99 92 388q24 68 132 484q48 134 76 232q-50 11 -288 24
q-16 18 -16 28t16 20h8zM471 1557h5q27 0 27 -27q0 -13 -97 -55q-86 -43 -98 -51t-19 -8h-5q-24 3 -24 20v2q0 22 146 92q52 27 65 27z" />
    <glyph glyph-name="Zdotaccent" unicode="&#x17b;" horiz-adv-x="725" 
d="M181 1208q0 -15 256 -24q72 -8 72 -36v-4q-88 -241 -212 -728q-88 -238 -88 -364q33 -8 90 -8t194 4q28 -3 28 -8l8 4h8q6 0 16 -16v-12q0 -8 -24 -16q-33 8 -77 8t-171 -4q-67 8 -112 8q-8 13 -8 20q0 99 92 388q24 68 132 484q48 134 76 232q-50 11 -288 24
q-16 18 -16 28t16 20h8zM412 1486v-16q0 -11 -30 -30h-39q-11 0 -30 30v46q0 11 23 23h46q30 -12 30 -53z" />
    <glyph glyph-name="zdotaccent" unicode="&#x17c;" horiz-adv-x="725" 
d="M181 1208q0 -15 256 -24q72 -8 72 -36v-4q-88 -241 -212 -728q-88 -238 -88 -364q33 -8 90 -8t194 4q28 -3 28 -8l8 4h8q6 0 16 -16v-12q0 -8 -24 -16q-33 8 -77 8t-171 -4q-67 8 -112 8q-8 13 -8 20q0 99 92 388q24 68 132 484q48 134 76 232q-50 11 -288 24
q-16 18 -16 28t16 20h8zM390 1483v-16q0 -11 -30 -30h-39q-11 0 -30 30v46q0 11 23 23h46q30 -12 30 -53z" />
    <glyph glyph-name="circumflex" unicode="&#x2c6;" horiz-adv-x="1024" 
d="M510 1110q-10 0 -134 85h-2q-26 -29 -79 -102l-12 -6q-12 4 -17 15v5q2 35 99 134h9q55 -25 151 -102v-17q-5 -12 -15 -12z" />
    <glyph glyph-name="caron" unicode="&#x2c7;" horiz-adv-x="1024" 
d="M221 1434h58l233 -214l233 214h58l-232 -356h-118z" />
    <glyph glyph-name="uni02C9" unicode="&#x2c9;" horiz-adv-x="1024" 
d="M254 1195v125h516v-125h-516z" />
    <glyph glyph-name="breve" unicode="&#x2d8;" horiz-adv-x="1024" 
d="M512 1208q109 0 166 34t74 107h51q-41 -270 -291 -270q-122 0 -197 69t-96 201h51q17 -73 75 -107t167 -34z" />
    <glyph glyph-name="dotaccent" unicode="&#x2d9;" horiz-adv-x="1024" 
d="M537 1264v-16q0 -11 -30 -30h-39q-11 0 -30 30v46q0 11 23 23h46q30 -12 30 -53z" />
    <glyph glyph-name="ring" unicode="&#x2da;" horiz-adv-x="1024" 
d="M291 1228v-2q0 -32 45 -43q27 3 27 27v13q-3 19 -20 37h-3q-49 -9 -49 -32zM345 1298q42 0 56 -77v-14q-11 -61 -54 -61q0 -2 -11 -2q-45 0 -73 45q-11 19 -11 41q0 47 66 61q20 7 27 7z" />
    <glyph glyph-name="ogonek" unicode="&#x2db;" horiz-adv-x="1024" 
d="M525 -8h20q10 -2 10 -10v-20q0 -18 -80 -196v-5q21 -70 65 -70h30q24 0 56 45h15q7 0 20 -20q0 -57 -86 -75h-35q-86 0 -115 120v5q0 23 75 186q14 40 25 40z" />
    <glyph glyph-name="tilde" unicode="&#x2dc;" horiz-adv-x="1024" 
d="M709 1175q6 0 12 -12v-4q0 -85 -68 -108q-7 -4 -20 -4q-74 0 -152 56q-59 24 -84 24q-47 0 -84 -80h-16q-16 7 -16 28q47 92 109 92t207 -80h32q35 0 52 48l-4 8v16q0 6 16 16h16z" />
    <glyph glyph-name="hungarumlaut" unicode="&#x2dd;" horiz-adv-x="1024" 
d="M740 1434q26 0 46 -20t20 -49t-41 -74l-205 -212h-58l144 273q45 82 94 82zM454 1434q26 0 47 -20q20 -20 20 -49t-41 -74l-205 -212h-58l144 273q44 82 93 82z" />
    <glyph glyph-name="endash" unicode="&#x2013;" horiz-adv-x="1108" 
d="M56 419v120h996v-120h-996z" />
    <glyph glyph-name="emdash" unicode="&#x2014;" horiz-adv-x="2048" 
d="M0 419v120h2048v-120h-2048z" />
    <glyph glyph-name="quoteleft" unicode="&#x2018;" horiz-adv-x="346" 
d="M201 1367q6 0 16 -16q-44 -195 -76 -260l-8 -4h-8q-6 0 -16 16q36 120 68 256l12 8h12z" />
    <glyph glyph-name="quoteright" unicode="&#x2019;" horiz-adv-x="346" 
d="M201 1367q6 0 16 -16q-44 -195 -76 -260l-8 -4h-8q-6 0 -16 16q36 120 68 256l12 8h12z" />
    <glyph glyph-name="quotesinglbase" unicode="&#x201a;" horiz-adv-x="557" 
d="M371 52q0 -98 -71 -214q-71 -118 -139 -118v43q73 43 87 190q0 119 -129 161v42l119 125q44 1 88 -65t45 -164z" />
    <glyph glyph-name="quotedblleft" unicode="&#x201c;" horiz-adv-x="672" 
d="M236 1222h-12q-6 0 -12 12q16 76 24 232l-12 20v8q8 16 20 16q32 -4 32 -32q-10 -256 -40 -256zM384 1526q32 0 32 -224v-36q0 -3 4 -24q0 -24 -28 -24q-20 0 -20 252q-4 0 -12 40q0 6 16 16h8z" />
    <glyph glyph-name="quotedblright" unicode="&#x201d;" horiz-adv-x="672" 
d="M236 1222h-12q-6 0 -12 12q16 76 24 232l-12 20v8q8 16 20 16q32 -4 32 -32q-10 -256 -40 -256zM384 1526q32 0 32 -224v-36q0 -3 4 -24q0 -24 -28 -24q-20 0 -20 252q-4 0 -12 40q0 6 16 16h8z" />
    <glyph glyph-name="quotedblbase" unicode="&#x201e;" horiz-adv-x="910" 
d="M724 52q0 -98 -71 -214q-71 -118 -139 -118v43q73 43 87 190q0 119 -129 161v42l119 125q45 1 89 -65t44 -164zM371 52q0 -98 -71 -214q-71 -118 -139 -118v43q73 43 87 190q0 119 -129 161v42l119 125q44 1 88 -65t45 -164z" />
    <glyph glyph-name="dagger" unicode="&#x2020;" 
d="M375 1340q0 38 36 68q37 30 95 29q58 1 96 -27t37 -66t-51 -133t-59 -189q96 8 187 60q92 52 130 51q38 0 68 -36q30 -37 30 -95t-28 -96t-66 -37t-132 51t-189 61q8 -176 110 -277q-106 -460 -112 -974h-38q-6 514 -114 974q102 101 111 277q-96 -10 -188 -61t-130 -51
t-68 36q-30 37 -29 95q-1 58 27 96t66 37q38 0 133 -51t189 -60q-8 97 -60 188q-52 92 -51 130z" />
    <glyph glyph-name="daggerdbl" unicode="&#x2021;" 
d="M850 298q38 0 66 -38t27 -96q0 -58 -30 -94q-31 -36 -69 -36t-129 52t-187 59q10 -94 60 -189t50 -133q0 -37 -38 -65t-96 -28t-94 30t-36 68t52 129t59 188q-94 -9 -189 -60t-133 -51q-37 0 -65 38t-28 96t30 94t68 36t130 -51t187 -61q-9 226 -111 398q102 171 111 397
q-95 -10 -187 -61t-130 -51t-68 36q-30 37 -30 95t28 96t65 37q38 0 133 -51t189 -60q-7 97 -59 188q-52 92 -52 130t36 68t94 29q58 1 96 -27t38 -66t-50 -133t-60 -189q96 8 187 60t129 51q38 0 69 -36q30 -37 30 -95q1 -58 -27 -96t-66 -37t-134 51q-94 50 -188 61
q8 -226 110 -397q-102 -172 -110 -398q94 12 188 62q96 50 134 50z" />
    <glyph glyph-name="bullet" unicode="&#x2022;" horiz-adv-x="1024" 
d="M216 718q0 123 87 209t209 86q122 -1 210 -87q86 -86 86 -208t-88 -210t-210 -87q-122 0 -208 87t-86 210z" />
    <glyph glyph-name="ellipsis" unicode="&#x2026;" horiz-adv-x="2048" 
d="M1622 265q14 0 31 -16l80 -86q12 -16 12 -30t-14 -30l-80 -88q-21 -20 -33 -20t-25 14l-88 101q-10 13 -10 27t16 30l82 84q15 14 29 14zM938 265q14 0 32 -16l80 -86q12 -16 12 -30t-14 -30l-80 -88q-20 -20 -32 -20t-26 14l-88 101q-10 13 -10 27t16 30l82 84
q14 14 28 14zM256 265q14 0 31 -16l80 -86q12 -16 12 -30t-14 -30l-80 -88q-21 -20 -33 -20t-25 14l-88 101q-10 13 -10 27t16 30l82 84q15 14 29 14z" />
    <glyph glyph-name="guilsinglleft" unicode="&#x2039;" horiz-adv-x="631" 
d="M530 782v-37l-205 -266l205 -266v-37h-14l-342 303l342 303h14z" />
    <glyph glyph-name="guilsinglright" unicode="&#x203a;" horiz-adv-x="631" 
d="M101 176v37l205 266l-205 266v37h14l342 -303l-342 -303h-14z" />
    <glyph glyph-name="fraction" unicode="&#x2044;" horiz-adv-x="342" 
d="M-342 -29l940 1461h84l-938 -1461h-86z" />
    <glyph glyph-name="fraction" unicode="&#x2215;" horiz-adv-x="342" 
d="M-342 -29l940 1461h84l-938 -1461h-86z" />
    <glyph glyph-name="franc" unicode="&#x20a3;" 
d="M247 357h-194v60h194v732q0 235 -103 235h-96v50h915l103 -231h-49q-59 182 -190 182l-316 -1q-102 0 -102 -235v-352h361q100 0 100 63v58h50v-342h-50v60q0 62 -100 62h-361v-281h194v-60h-194v-72q0 -235 102 -235h97v-50h-560v50h96q103 0 103 235v72z" />
    <glyph glyph-name="lira" unicode="&#x20a4;" horiz-adv-x="842" 
d="M323 1307q60 0 60 -20v-8q0 -6 -16 -16q-2 0 -52 4q-88 -56 -88 -192v-24q0 -106 56 -364q153 -20 204 -32l8 -12v-8q-8 -16 -20 -16q-64 12 -192 24v-40q0 -63 -60 -224q-60 -197 -60 -236v-16q35 24 87 24t453 -56q36 6 36 32l8 4h16q6 0 12 -12q-6 -60 -60 -60h-32
l-412 52h-16q-73 0 -88 -52l-8 -4h-16q-20 0 -20 76v4q0 78 120 436v84q-104 21 -104 48q0 21 20 32h8q29 -35 72 -40v4q-52 245 -52 372q0 176 120 236h16z" />
    <glyph glyph-name="peseta" unicode="&#x20a7;" horiz-adv-x="2028" 
d="M1168 223v687h-129q-7 -100 -53 -204t-136 -168t-190 -63q-100 0 -191 64q-33 22 -60 51v-305q0 -235 102 -235h97v-50h-560v50h96q103 0 103 235v864q0 235 -103 235h-96v50h618q92 -2 182 -63t141 -175t52 -238h10q216 0 216 355h50v-355h259q42 19 110 20h2
q54 0 134 -14t79 -33v-159h-42q-3 66 -65 108t-130 42t-106 -36t-39 -97q0 -108 235 -220q122 -55 168 -117t45 -154q0 -140 -83 -231q-102 -84 -228 -86q-58 1 -96 9t-65 8l-95 -8q-124 0 -174 57t-57 176h-1zM1422 731q0 103 74 177h-179v-685q0 -143 115 -156l-71 192
l49 1q55 -130 113 -174t128 -44h7q92 0 151 52t59 136q0 102 -259 226q-101 52 -144 112t-43 163zM409 1384v-662q37 -111 104 -162q68 -52 137 -52t132 72q113 128 113 360q-1 144 -47 256t-107 150t-117 39q-10 0 -21 -1h-194z" />
    <glyph glyph-name="Euro" unicode="&#x20ac;" horiz-adv-x="746" 
d="M523 1366q52 0 52 -32q0 -11 -20 -20l-24 12h-4q-149 0 -260 -392q-20 -120 -20 -140h272q6 0 12 -12v-12q-5 -16 -36 -16h-244q-8 -1 -8 -8v-52q1 -8 8 -8q202 -4 268 -4l28 4q18 -8 20 -16v-12q-8 -16 -20 -16q-58 0 -304 4v-4q0 -119 60 -324q96 -115 152 -128
q59 -30 220 -72l8 -12v-12q0 -12 -16 -12q-249 52 -340 144q-73 77 -92 184q-16 73 -36 240q-124 0 -124 44q0 6 16 16q46 -20 108 -20h4v24l4 40q-128 9 -128 36q-4 7 -4 20l16 12h8q0 -18 108 -28q0 151 112 400q97 172 204 172z" />
    <glyph glyph-name="uni20B1" unicode="&#x20b1;" horiz-adv-x="917" 
d="M316 732q0 -4 4 -12q4 -145 4 -220q96 52 150 108t66 100q-62 4 -224 24zM564 860v24l-248 8v-120q144 -20 236 -20q12 47 12 108zM316 956v-24q40 -4 60 -4h56q42 0 128 -4q0 49 -76 156q-65 76 -164 76q-4 -8 -8 -44q4 -88 4 -156zM744 892v-8q-5 -16 -20 -24h-20
q-14 16 -60 16h-40v-16q0 -55 -12 -116q27 -8 84 -8l8 -12v-12q-2 -8 -20 -16l-84 8q0 -61 -160 -196q-15 0 -92 -56q16 -207 16 -388v-4q0 -14 4 -36q-8 -24 -16 -24h-12q-16 5 -16 36v40q0 257 -20 388q0 9 4 16q-4 48 -8 248q0 15 -60 20q-91 27 -104 48v16q7 16 28 16
q25 -29 92 -40q18 -8 40 -8v112q-144 16 -144 44v4q0 31 20 40h8q10 0 20 -32q33 -8 96 -16v212l-4 40l16 12q172 0 232 -100q53 -52 84 -176q140 -8 140 -28z" />
    <glyph glyph-name="afii61352" unicode="&#x2116;" horiz-adv-x="2271" 
 />
    <glyph glyph-name="trademark" unicode="&#x2122;" horiz-adv-x="931" 
d="M461 1285q0 -14 -16 -24l-20 4q-75 -8 -84 -12q24 -42 40 -300q-6 -16 -12 -16h-20q-3 0 -12 12l4 20q-20 272 -44 272v4h-4l-40 -12h-12q-6 0 -16 16v8q9 32 216 48q20 -6 20 -20zM645 1333q46 0 60 -392l-8 -4h-16q-20 11 -20 40q0 175 -24 292h-4q-20 -78 -20 -188
v-16q0 -6 -12 -12h-12q-21 0 -36 156q-5 0 -8 28h-4q-12 -106 -16 -272q-15 -12 -28 -12l-16 12q13 231 32 332q0 20 20 32h12q19 0 36 -80h8q0 49 40 84h16z" />
    <glyph glyph-name="partialdiff" unicode="&#x2202;" 
d="M937 477q-1 -132 -57 -251t-158 -185t-215 -66t-215 66t-158 185q-56 118 -57 250q0 132 58 252t161 185q104 65 212 65t211 -65q29 -18 54 -41q-83 235 -233 377t-327 155v55q306 0 515 -285t209 -697zM232 553q0 -174 57 -303q57 -130 125 -185t138 -55q71 0 131 68
q59 68 79 162t20 153t-10 141t-58 192t-116 163t-131 53h-11q-68 -6 -126 -70t-78 -163t-20 -156z" />
    <glyph glyph-name="Delta" unicode="&#x2206;" horiz-adv-x="1081" 
d="M547 1434l526 -1434h-1067zM514 1195l-406 -1072h801z" />
    <glyph glyph-name="product" unicode="&#x220f;" horiz-adv-x="1515" 
d="M511 1384q-102 0 -102 -235v-1281q0 -235 102 -235h97v-51h-560v51h96q103 0 103 235v1281q0 235 -103 235h-96v50h1419v-50h-97q-102 0 -102 -235v-1281q0 -235 102 -235h97v-50h-560v50h96q103 0 103 235v1281q0 235 -103 235h-492z" />
    <glyph glyph-name="summation" unicode="&#x2211;" horiz-adv-x="1206" 
d="M906 -366q130 0 189 182h49l-103 -232h-921v50q62 0 106 53l663 781l-663 859q-44 57 -106 57v50h921l103 -232h-49q-59 182 -189 182h-485l638 -836l-788 -914h635z" />
    <glyph glyph-name="minus" unicode="&#x2212;" 
d="M87 647v140h839l1 -1v-139h-840z" />
    <glyph glyph-name="radical" unicode="&#x221a;" 
d="M1054 1679v-60h-72l-801 -1619l-164 359l74 35l85 -185l728 1470h150z" />
    <glyph glyph-name="infinity" unicode="&#x221e;" 
d="M694 1082q67 0 128 -48t95 -135t34 -182t-34 -182t-95 -135t-128 -48t-128 49t-95 136q-12 35 -21 70q-24 -101 -79 -148q-54 -46 -106 -46t-100 41q-47 42 -73 114t-26 148t26 150q26 73 73 114q48 41 100 41t106 -46t79 -148q9 35 21 69q34 88 95 137t128 49zM932 749
v11q-2 60 -36 108q-56 81 -167 82q-22 0 -44 -4q-67 -9 -127 -62t-92 -197q12 -97 88 -149t134 -52q59 0 124 47q120 87 120 216zM294 910q-25 0 -55 -6q-29 -6 -73 -40t-65 -83q-21 -48 -21 -92v-8q2 -48 28 -89q43 -69 119 -69q77 1 137 47q44 34 75 185q-15 103 -67 129
t-78 26z" />
    <glyph glyph-name="integral" unicode="&#x222b;" horiz-adv-x="665" 
d="M-12 -281q-60 0 -60 29v159h36q0 -43 34 -65t64 -21h1q82 0 115 162q32 162 40 316l70 734l8 62q27 237 135 429t234 192q60 0 60 -29v-159h-36q-1 42 -35 64t-63 22q-71 0 -116 -156t-49 -363l-73 -767q-21 -231 -131 -420t-234 -189z" />
    <glyph glyph-name="approxequal" unicode="&#x2248;" 
d="M685 426q-59 0 -177 48t-173 49q-55 0 -111 -28t-130 -112v156q110 125 237 125q63 0 181 -50t172 -49q54 0 110 28t129 112v-156q-108 -123 -238 -123zM685 774q-59 0 -177 48t-173 49q-55 0 -111 -28t-130 -112v156q110 125 237 125q63 0 181 -50t172 -49q54 0 110 28
t129 112v-156q-108 -123 -238 -123z" />
    <glyph glyph-name="lessequal" unicode="&#x2264;" 
d="M87 1v140h839l1 -1v-139h-840zM927 1074l-625 -359l625 -355v-167l-840 481v83l840 484v-167z" />
    <glyph glyph-name="greaterequal" unicode="&#x2265;" 
d="M87 2v140h839l1 -1v-139h-840zM87 1241l840 -484v-83l-840 -481v167l625 355l-625 359v167z" />
    <glyph glyph-name="heart" unicode="&#x2665;" horiz-adv-x="674" 
d="M543 554q0 -101 -116 -364q-16 -60 -44 -60q-16 0 -84 136l-124 184q-32 55 -32 128q23 144 92 144h4q53 -5 124 -128q7 0 24 68q46 61 84 68q72 -21 72 -176z" />
    <glyph glyph-name="uniF001" unicode="&#xf001;" horiz-adv-x="1073" 
 />
    <glyph glyph-name="uniF001" unicode="&#xfb01;" horiz-adv-x="1073" 
 />
    <glyph glyph-name="uniF002" unicode="&#xf002;" horiz-adv-x="1081" 
 />
    <glyph glyph-name="uniF002" unicode="&#xfb02;" horiz-adv-x="1081" 
 />
  </font>
</defs>
</svg>
